<svg width="42" height="42" viewBox="0 0 42 42" fill="none" xmlns="http://www.w3.org/2000/svg">
<path d="M10.5024 33.25H31.5024L29.0087 15.75H12.9962L10.5024 33.25ZM21.0024 12.25C21.4982 12.25 21.9142 12.0826 22.2502 11.7477C22.585 11.4117 22.7524 10.9958 22.7524 10.5C22.7524 10.0042 22.585 9.58825 22.2502 9.25225C21.9142 8.91742 21.4982 8.75 21.0024 8.75C20.5066 8.75 20.0912 8.91742 19.7564 9.25225C19.4204 9.58825 19.2524 10.0042 19.2524 10.5C19.2524 10.9958 19.4204 11.4117 19.7564 11.7477C20.0912 12.0826 20.5066 12.25 21.0024 12.25ZM25.9462 12.25H29.0087C29.8837 12.25 30.642 12.5417 31.2837 13.125C31.9253 13.7083 32.3191 14.4229 32.4649 15.2688L34.9587 32.7688C35.1045 33.8188 34.835 34.7445 34.1502 35.546C33.4642 36.3487 32.5816 36.75 31.5024 36.75H10.5024C9.42325 36.75 8.54125 36.3487 7.85641 35.546C7.17041 34.7445 6.90033 33.8188 7.04616 32.7688L9.53991 15.2688C9.68575 14.4229 10.0795 13.7083 10.7212 13.125C11.3628 12.5417 12.1212 12.25 12.9962 12.25H16.0587C15.9712 11.9583 15.8982 11.6737 15.8399 11.396C15.7816 11.1195 15.7524 10.8208 15.7524 10.5C15.7524 9.04167 16.2628 7.80208 17.2837 6.78125C18.3045 5.76042 19.5441 5.25 21.0024 5.25C22.4607 5.25 23.7003 5.76042 24.7212 6.78125C25.742 7.80208 26.2524 9.04167 26.2524 10.5C26.2524 10.8208 26.2232 11.1195 26.1649 11.396C26.1066 11.6737 26.0337 11.9583 25.9462 12.25Z" fill="white"/>
</svg>
