<svg width="43" height="42" viewBox="0 0 43 42" fill="none" xmlns="http://www.w3.org/2000/svg">
<path d="M19.75 35.7875C16.3083 35.35 13.4063 33.8333 11.0438 31.2375C8.68125 28.6417 7.5 25.5792 7.5 22.05C7.5 20.125 7.85758 18.3382 8.57275 16.6897C9.28675 15.0424 10.3 13.5917 11.6125 12.3375L21.5 2.625L31.3875 12.3375C32.4375 13.3875 33.3055 14.5687 33.9915 15.8812C34.6763 17.1937 35.1354 18.6083 35.3687 20.125H31.825C31.6208 19.1333 31.2778 18.1924 30.796 17.3022C30.3153 16.4132 29.6958 15.6042 28.9375 14.875L21.5 7.525L14.0625 14.875C13.0417 15.8375 12.2763 16.9237 11.7665 18.1335C11.2555 19.3445 11 20.65 11 22.05C11 24.5875 11.8388 26.8187 13.5165 28.7437C15.193 30.6687 17.2708 31.8354 19.75 32.2437V35.7875ZM23.775 27.4312L22.725 25.025C23.4833 24.6167 24.2778 24.2812 25.1085 24.0187C25.9403 23.7562 26.7792 23.625 27.625 23.625C28.2958 23.625 28.9591 23.7049 29.6147 23.8647C30.2716 24.0257 30.9063 24.2229 31.5188 24.4562C32.0438 24.6896 32.5763 24.8937 33.1165 25.0687C33.6555 25.2437 34.2167 25.3312 34.8 25.3312C35.4708 25.3312 36.1271 25.2146 36.7688 24.9812C37.4104 24.7479 38.0375 24.4708 38.65 24.15L39.7 26.5562C38.9417 26.9646 38.1472 27.3 37.3165 27.5625C36.4847 27.825 35.6458 27.9562 34.8 27.9562C34.1292 27.9562 33.4659 27.8757 32.8103 27.7147C32.1534 27.5549 31.5188 27.3583 30.9063 27.125C30.3813 26.8917 29.8487 26.6875 29.3085 26.5125C28.7695 26.3375 28.2083 26.25 27.625 26.25C26.9542 26.25 26.2979 26.3667 25.6563 26.6C25.0146 26.8333 24.3875 27.1104 23.775 27.4312ZM23.775 32.6812L22.725 30.275C23.4833 29.8667 24.2778 29.5312 25.1085 29.2687C25.9403 29.0062 26.7792 28.875 27.625 28.875C28.2958 28.875 28.9591 28.9549 29.6147 29.1147C30.2716 29.2757 30.9063 29.4729 31.5188 29.7062C32.0438 29.9396 32.5763 30.1437 33.1165 30.3188C33.6555 30.4937 34.2167 30.5812 34.8 30.5812C35.4708 30.5812 36.1271 30.4646 36.7688 30.2312C37.4104 29.9979 38.0375 29.7208 38.65 29.4L39.7 31.8062C38.9417 32.2146 38.1472 32.55 37.3165 32.8125C36.4847 33.075 35.6458 33.2062 34.8 33.2062C34.1292 33.2062 33.4659 33.1257 32.8103 32.9647C32.1534 32.8049 31.5188 32.6083 30.9063 32.375C30.3813 32.1417 29.8487 31.9375 29.3085 31.7625C28.7695 31.5875 28.2083 31.5 27.625 31.5C26.9542 31.5 26.2979 31.6167 25.6563 31.85C25.0146 32.0833 24.3875 32.3604 23.775 32.6812ZM23.775 37.9312L22.725 35.525C23.4833 35.1167 24.2778 34.7812 25.1085 34.5187C25.9403 34.2562 26.7792 34.125 27.625 34.125C28.2958 34.125 28.9591 34.2049 29.6147 34.3647C30.2716 34.5257 30.9063 34.7229 31.5188 34.9562C32.0438 35.1896 32.5763 35.3937 33.1165 35.5687C33.6555 35.7437 34.2167 35.8312 34.8 35.8312C35.4708 35.8312 36.1271 35.7146 36.7688 35.4812C37.4104 35.2479 38.0375 34.9708 38.65 34.65L39.7 37.0562C38.9417 37.4646 38.1472 37.8 37.3165 38.0625C36.4847 38.325 35.6458 38.4562 34.8 38.4562C34.1292 38.4562 33.4659 38.3757 32.8103 38.2147C32.1534 38.0549 31.5188 37.8583 30.9063 37.625C30.3813 37.3917 29.8487 37.1875 29.3085 37.0125C28.7695 36.8375 28.2083 36.75 27.625 36.75C26.9542 36.75 26.2979 36.8667 25.6563 37.1C25.0146 37.3333 24.3875 37.6104 23.775 37.9312Z" fill="white"/>
</svg>
