<svg width="42" height="43" viewBox="0 0 42 43" fill="none" xmlns="http://www.w3.org/2000/svg">
<path d="M9.45 34.8C8.1375 33.4875 7.10967 31.9708 6.3665 30.25C5.62217 28.5291 5.25 26.75 5.25 24.9125C5.25 23.075 5.6 21.259 6.3 19.4647C7 17.6715 8.1375 15.9875 9.7125 14.4125C10.7333 13.3916 11.9951 12.5166 13.4977 11.7875C14.9992 11.0583 16.7778 10.482 18.8335 10.0585C20.8903 9.63613 23.2388 9.38122 25.879 9.29372C28.518 9.20622 31.4708 9.3083 34.7375 9.59997C34.9708 12.6916 35.0438 15.5354 34.9563 18.1312C34.8688 20.727 34.6278 23.0674 34.2335 25.1522C33.8403 27.2382 33.2868 29.0611 32.5728 30.621C31.8576 32.182 30.975 33.4875 29.925 34.5375C28.3792 36.0833 26.7388 37.2132 25.004 37.9272C23.268 38.6424 21.4958 39 19.6875 39C17.7917 39 15.9396 38.6284 14.1312 37.8852C12.3229 37.1409 10.7625 36.1125 9.45 34.8ZM14.35 34.1C15.1958 34.5958 16.0638 34.9528 16.954 35.171C17.843 35.3903 18.7542 35.5 19.6875 35.5C21.0292 35.5 22.3562 35.2305 23.6687 34.6915C24.9812 34.1513 26.2354 33.2833 27.4312 32.0875C27.9563 31.5625 28.4883 30.8263 29.0273 29.879C29.5674 28.9305 30.0347 27.6903 30.429 26.1585C30.8222 24.6278 31.1208 22.7763 31.325 20.604C31.5292 18.4305 31.5583 15.8416 31.4125 12.8375C29.9833 12.7791 28.3722 12.757 26.579 12.771C24.7847 12.7861 22.9979 12.925 21.2188 13.1875C19.4396 13.45 17.7479 13.8729 16.1438 14.4562C14.5396 15.0395 13.2271 15.8416 12.2062 16.8625C10.8937 18.175 9.98958 19.4729 9.49375 20.7562C8.99792 22.0395 8.75 23.2791 8.75 24.475C8.75 26.1958 9.07783 27.7049 9.7335 29.0022C10.3903 30.3007 10.9667 31.2125 11.4625 31.7375C12.6875 29.4041 14.3062 27.1653 16.3187 25.021C18.3312 22.8778 20.6792 21.1208 23.3625 19.75C21.2625 21.5875 19.4326 23.6653 17.8728 25.9835C16.3118 28.3028 15.1375 31.0083 14.35 34.1Z" fill="white"/>
</svg>
