<svg width="43" height="42" viewBox="0 0 43 42" fill="none" xmlns="http://www.w3.org/2000/svg">
<g clip-path="url(#clip0_1718_5075)">
<path d="M28.5 10.5002L27.73 11.4627C26.995 12.3727 26.015 12.7752 25.035 12.7752C23.25 12.7752 21.5 11.4102 21.5 9.27524V3.50024C21.5 3.50024 7.5 10.5002 7.5 22.7502C7.5 30.4852 13.765 36.7502 21.5 36.7502C29.235 36.7502 35.5 30.4852 35.5 22.7502C35.5 17.5702 32.6825 12.9152 28.5 10.5002ZM21.5 33.2502C19.575 33.2502 18 31.7277 18 29.8552C18 28.9627 18.35 28.1227 19.015 27.4752L21.5 25.0252L24.0025 27.4752C24.65 28.1227 25 28.9627 25 29.8552C25 31.7277 23.425 33.2502 21.5 33.2502ZM28.43 30.6252C28.5 29.9952 28.815 27.3177 26.4525 24.9902L21.5 20.1252L16.5475 24.9902C14.1675 27.3352 14.5 30.0302 14.57 30.6252C12.3825 28.7002 11 25.8827 11 22.7502C11 17.2202 14.7275 12.8627 18.0525 10.0627C18.455 13.5452 21.43 16.2752 25.035 16.2752C26.4 16.2752 27.73 15.8727 28.85 15.1202C30.845 17.1152 32 19.8627 32 22.7502C32 25.8827 30.6175 28.7002 28.43 30.6252Z" fill="white"/>
</g>
<defs>
<clipPath id="clip0_1718_5075">
<rect width="42" height="42" fill="white" transform="translate(0.5)"/>
</clipPath>
</defs>
</svg>
