<svg width="43" height="42" viewBox="0 0 43 42" fill="none" xmlns="http://www.w3.org/2000/svg">
<g clip-path="url(#clip0_1718_5083)">
<path d="M21.5 3.50024C12.1725 11.4627 7.5 18.3402 7.5 24.1502C7.5 32.8652 14.15 38.5002 21.5 38.5002C28.85 38.5002 35.5 32.8652 35.5 24.1502C35.5 18.3402 30.8275 11.4627 21.5 3.50024ZM21.5 35.0002C15.6375 35.0002 11 30.5027 11 24.1502C11 20.0552 14.4125 14.6302 21.5 8.15524C28.5875 14.6302 32 20.0377 32 24.1502C32 30.5027 27.3625 35.0002 21.5 35.0002ZM14.2025 24.5002C14.85 24.5002 15.375 24.9552 15.4975 25.5852C16.215 29.4702 19.4875 30.8002 21.8675 30.6077C22.62 30.5727 23.25 31.1677 23.25 31.9202C23.25 32.6202 22.69 33.1977 21.99 33.2327C18.2625 33.4602 13.905 31.3252 12.9075 26.0227C12.7675 25.2352 13.3975 24.5002 14.2025 24.5002Z" fill="white"/>
</g>
<defs>
<clipPath id="clip0_1718_5083">
<rect width="42" height="42" fill="white" transform="translate(0.5)"/>
</clipPath>
</defs>
</svg>
