<svg width="42" height="43" viewBox="0 0 42 43" fill="none" xmlns="http://www.w3.org/2000/svg">
<path d="M21 39.0002C18.5792 39.0002 16.5159 38.1474 14.8103 36.4417C13.1034 34.7349 12.25 32.6711 12.25 30.2502V14.5002C11.2875 14.5002 10.4638 14.1572 9.779 13.4712C9.093 12.7864 8.75 11.9627 8.75 11.0002V7.50024C8.75 6.53774 9.093 5.71349 9.779 5.02749C10.4638 4.34266 11.2875 4.00024 12.25 4.00024H29.75C30.7125 4.00024 31.5368 4.34266 32.2227 5.02749C32.9076 5.71349 33.25 6.53774 33.25 7.50024V11.0002C33.25 11.9627 32.9076 12.7864 32.2227 13.4712C31.5368 14.1572 30.7125 14.5002 29.75 14.5002V30.2502C29.75 32.6711 28.8972 34.7349 27.1915 36.4417C25.4847 38.1474 23.4208 39.0002 21 39.0002ZM12.25 11.0002H29.75V7.50024H12.25V11.0002ZM21 35.5002C22.1375 35.5002 23.1583 35.1724 24.0625 34.5167C24.9667 33.8599 25.5938 33.0211 25.9438 32.0002H21V28.5002H26.25V26.7502H21V23.2502H26.25V21.5002H21V18.0002H26.25V14.5002H15.75V30.2502C15.75 31.7086 16.2604 32.9482 17.2812 33.969C18.3021 34.9898 19.5417 35.5002 21 35.5002Z" fill="white"/>
</svg>
