<svg width="43" height="42" viewBox="0 0 43 42" fill="none" xmlns="http://www.w3.org/2000/svg">
<g clip-path="url(#clip0_1718_5094)">
<path d="M17.1819 6.49561H25.8181C26.9007 6.49561 28.4016 7.5536 27.8111 8.78383L23.7267 17.1494C23.7513 17.1494 23.4561 17.5677 23.0624 17.3708C22.0782 16.9525 20.9464 16.9279 19.9622 17.3462C19.9622 17.3954 19.4701 17.4938 19.2979 17.1002L15.1889 8.78383C14.5738 7.57821 16.0747 6.49561 17.1819 6.49561ZM21.4877 0C9.89895 0 0.5 9.39895 0.5 20.9877C0.5 32.6011 9.89895 42 21.4877 42C33.1011 42 42.5 32.6011 42.5 20.9877C42.5 9.39895 33.1011 0 21.4877 0ZM21.4877 2.36204C31.7724 2.36204 40.1134 10.703 40.1134 20.9877C40.1134 31.2724 31.7724 39.6134 21.4877 39.6134C11.203 39.6134 2.86204 31.2724 2.86204 20.9877C2.86204 10.703 11.203 2.36204 21.4877 2.36204ZM21.4877 18.4042C22.9394 18.4042 24.0958 19.5606 24.0958 20.9877C24.0958 22.4394 22.9394 23.5958 21.4877 23.5958C20.0606 23.5958 18.9042 22.4394 18.9042 20.9877C18.9042 19.5606 20.0606 18.4042 21.4877 18.4042ZM11.1046 31.9859L6.79877 24.5062C6.23286 23.5712 6.4051 21.7258 7.75835 21.6274L16.8866 21.0123C16.9851 20.9877 17.0835 20.9877 17.1573 20.9877C17.3541 21.0369 17.5264 21.1845 17.551 21.3814C17.92 23.0545 17.9692 22.9807 19.1749 24.1863C19.2979 24.3339 19.3471 24.5308 19.2979 24.703C19.2487 24.7768 19.1995 24.8752 19.1503 24.949L14.0817 32.5765C13.3436 33.6837 11.6705 32.9455 11.1046 31.9859ZM31.1573 32.7487C30.4684 33.2162 29.4596 33.3638 28.9183 32.5765L23.7759 24.949C23.7267 24.8752 23.6775 24.8014 23.6529 24.7276C23.6037 24.5062 23.6775 24.2847 23.8497 24.1617C24.6863 23.6204 25.3014 22.464 25.4244 21.4798C25.3752 21.2583 25.7197 21.0123 25.9657 21.0615L35.2417 21.6274C36.1766 21.7012 36.5457 22.6362 36.4965 23.4728C36.4719 24.0879 32.7074 31.7153 31.1573 32.7487Z" fill="white"/>
</g>
<defs>
<clipPath id="clip0_1718_5094">
<rect width="42" height="42" fill="white" transform="translate(0.5)"/>
</clipPath>
</defs>
</svg>
