<svg width="22" height="22" viewBox="0 0 22 22" fill="none" xmlns="http://www.w3.org/2000/svg"><path d="M11 0.5C5.204 0.5 0.5 5.204 0.5 11C0.5 16.796 5.204 21.5 11 21.5C16.775 21.5 21.5 16.796 21.5 11C21.5 5.204 16.775 0.5 11 0.5ZM17.93 5.33C19.19 6.863 19.925 8.795 19.967 10.916C19.673 10.853 16.712 10.265 13.73 10.622C13.667 10.475 13.604 10.307 13.541 10.16C13.352 9.719 13.163 9.278 12.953 8.858C16.229 7.535 17.741 5.582 17.93 5.33ZM11 2.054C13.268 2.054 15.368 2.915 16.943 4.301C16.775 4.532 15.431 6.338 12.239 7.535C10.769 4.826 9.131 2.621 8.9 2.285C9.572 2.138 10.265 2.054 11 2.054ZM7.178 2.894C7.409 3.209 9.005 5.435 10.496 8.081C6.296 9.194 2.6 9.173 2.201 9.173C2.81 6.38 4.679 4.07 7.178 2.894ZM2.033 11.021C2.033 10.937 2.033 10.832 2.033 10.748C2.411 10.769 6.779 10.811 11.252 9.467C11.504 9.971 11.756 10.475 11.987 11C11.882 11.042 11.756 11.063 11.63 11.105C7.01 12.596 4.553 16.67 4.343 17.006C2.894 15.41 2.033 13.31 2.033 11.021ZM11 19.967C8.921 19.967 7.01 19.253 5.498 18.077C5.666 17.741 7.472 14.234 12.533 12.47C12.554 12.449 12.575 12.449 12.596 12.449C13.856 15.725 14.381 18.455 14.507 19.253C13.436 19.715 12.239 19.967 11 19.967ZM15.998 18.434C15.914 17.888 15.431 15.263 14.255 12.05C17.069 11.609 19.526 12.344 19.841 12.428C19.442 14.927 18.014 17.09 15.998 18.434Z" fill="white"></path></svg>

