<svg width="22" height="16" viewBox="0 0 22 16" fill="none" xmlns="http://www.w3.org/2000/svg"><g clip-path="url(#clip0_1485_1168)"><path d="M20.3524 -0.00210571H1.64764C0.737645 -0.00210571 0 0.816931 0 1.82733V14.1727C0 15.1831 0.737645 16.0021 1.64764 16.0021H20.3524C21.2623 16.0021 22 15.1831 22 14.1727V1.82733C22 0.816931 21.2624 -0.00210571 20.3524 -0.00210571Z" fill="#41479B"></path> <path d="M21.9772 1.52492C21.8473 0.658551 21.1695 -0.00213623 20.3524 -0.00213623H19.9237L12.8966 5.10984V-0.00208855H9.10345V5.10989L2.07634 -0.00208855H1.64764C0.8305 -0.00208855 0.152668 0.658551 0.0228164 1.52496L6.0289 5.89424H0V10.1059H6.0289L0.0228164 14.4751C0.152668 15.3414 0.8305 16.0021 1.64764 16.0021H2.07634L9.10345 10.8901V16.0021H12.8966V10.8901L19.9237 16.0021H20.3524C21.1695 16.0021 21.8473 15.3415 21.9772 14.4751L15.9711 10.1058H22V5.89414H15.9711L21.9772 1.52492Z" fill="#F5F5F5"></path> <path d="M12.1379 -0.00210571H9.86206V6.73649H0V9.2635H9.86206V16.0021H12.1379V9.2635H22V6.73649H12.1379V-0.00210571Z" fill="#FF4B55"></path> <path d="M1.06531 15.8841L9.08255 10.1058H7.68916L0.396332 15.3621C0.574781 15.5934 0.804105 15.7746 1.06531 15.8841Z" fill="#FF4B55"></path> <path d="M14.8839 10.1058H13.4905L21.2556 15.7024C21.4729 15.544 21.6542 15.3299 21.7836 15.0786L14.8839 10.1058Z" fill="#FF4B55"></path> <path d="M0.173981 1.00929L6.95144 5.89416H8.34483L0.664942 0.358856C0.458735 0.529276 0.289996 0.752081 0.173981 1.00929Z" fill="#FF4B55"></path> <path d="M14.2899 5.89416L21.5961 0.628176C21.4157 0.39769 21.1846 0.217537 20.9216 0.110046L12.8965 5.89416H14.2899Z" fill="#FF4B55"></path></g> <defs><clipPath id="clip0_1485_1168"><rect width="22" height="16" fill="white"></rect></clipPath></defs></svg>