<svg width="110" height="13" viewBox="0 0 110 13" fill="none" xmlns="http://www.w3.org/2000/svg">
<g clip-path="url(#clip0_1106_5274)">
<path fill-rule="evenodd" clip-rule="evenodd" d="M27.805 2.3792L23.8145 11.0627H24.4749L25.5544 8.64811H30.6078L31.6956 11.0599H32.3949L28.4044 2.3764L27.805 2.3792ZM25.8319 8.06267L28.0991 3.07948L30.3497 8.06267H25.8319ZM44.1473 4.8834C44.1503 4.58344 44.0948 4.28581 43.9839 4.00753C43.8729 3.72924 43.7087 3.47575 43.5007 3.26155C42.9873 2.74615 42.1465 2.42122 41.0947 2.42122H37.5093V11.0207H38.1448V7.45763H40.9421L43.6644 11.0207H44.472L41.6497 7.34558C43.09 7.14951 44.1473 6.32598 44.1473 4.889V4.8834ZM38.1393 6.875V3.02066H41.0586C42.6099 3.02066 43.5146 3.74615 43.5146 4.90021C43.5146 6.16631 42.4517 6.8918 41.017 6.8918L38.1393 6.875ZM56.5046 2.41841H55.6388L50.1913 8.06267V2.41841H49.5559V11.0207H50.1913V8.83298L52.317 6.66211L55.833 11.0122H56.6655L52.7805 6.20833L56.5046 2.41841ZM72.944 3.02066H75.9244V11.0319H76.5599V3.02066H79.5375V2.41841H72.944V3.02066ZM84.6464 11.0319H85.2819V2.41841H84.6464V11.0319ZM96.8899 9.91141L90.9902 2.41841H90.3908V11.0207H91.0013V3.3764L97.0231 11.0207H97.5005V2.41841H96.8899V9.91141ZM106.641 6.55007V7.11029H109.417V9.51085C108.67 10.1201 107.741 10.4567 106.78 10.466C104.56 10.466 103.234 8.85539 103.234 6.69292C103.234 4.65091 104.641 2.93382 106.65 2.93382C107.633 2.89956 108.589 3.2602 109.308 3.93662L109.711 3.47164C108.88 2.72607 107.797 2.33187 106.686 2.3708C104.216 2.3708 102.595 4.43802 102.595 6.69292C102.595 9.06827 104.144 11.0151 106.758 11.0151C107.956 11.0058 109.111 10.5602 110.01 9.76015V6.54446L106.641 6.55007ZM61.7522 3.03466H67.8573V2.41561H61.7522V3.03466ZM65.9897 6.43242H61.7522V7.04586H65.9897V6.43242ZM61.7522 11.0207H67.8573V10.4072H61.7522V11.0207Z" fill="white"/>
<path fill-rule="evenodd" clip-rule="evenodd" d="M15.0146 0.5L12.1896 5.38515L9.37847 0.5H5.9707V7.7577C7.02582 8.69908 8.16683 9.53755 9.37847 10.2619V6.66247L12.037 11.1443H12.3422L15.0146 6.66247V12.5H18.4057V0.5H15.0146Z" fill="white"/>
<path fill-rule="evenodd" clip-rule="evenodd" d="M4.26519 6.03221V0.5H0.857422C1.67425 2.52583 2.82661 4.3966 4.26519 6.03221Z" fill="white"/>
<path fill-rule="evenodd" clip-rule="evenodd" d="M0.857422 7.46338V12.5054H4.26519V9.83593C3.06885 9.13736 1.92935 8.34402 0.857422 7.46338H0.857422Z" fill="white"/>
<path fill-rule="evenodd" clip-rule="evenodd" d="M5.9707 10.7461V12.4996H9.37847V12.1214C8.21225 11.7435 7.07357 11.284 5.9707 10.7461Z" fill="white"/>
</g>
<defs>
<clipPath id="clip0_1106_5274">
<rect width="109.143" height="12" fill="white" transform="translate(0.857422 0.5)"/>
</clipPath>
</defs>
</svg>
