<svg width="22" height="22" viewBox="0 0 22 22" fill="none" xmlns="http://www.w3.org/2000/svg"><path d="M11.0002 2.0752C13.8877 2.0752 14.2814 2.0752 15.4627 2.0752C16.5127 2.0752 17.0377 2.3377 17.4314 2.46895C17.9564 2.73145 18.3502 2.8627 18.7439 3.25645C19.1377 3.6502 19.4002 4.04395 19.5314 4.56895C19.6627 4.9627 19.7939 5.4877 19.9252 6.5377C19.9252 7.71895 19.9252 7.98145 19.9252 11.0002C19.9252 14.0189 19.9252 14.2814 19.9252 15.4627C19.9252 16.5127 19.6627 17.0377 19.5314 17.4314C19.2689 17.9564 19.1377 18.3502 18.7439 18.7439C18.3502 19.1377 17.9564 19.4002 17.4314 19.5314C17.0377 19.6627 16.5127 19.7939 15.4627 19.9252C14.2814 19.9252 14.0189 19.9252 11.0002 19.9252C7.98145 19.9252 7.71895 19.9252 6.5377 19.9252C5.4877 19.9252 4.9627 19.6627 4.56895 19.5314C4.04395 19.2689 3.6502 19.1377 3.25645 18.7439C2.8627 18.3502 2.6002 17.9564 2.46895 17.4314C2.3377 17.0377 2.20645 16.5127 2.0752 15.4627C2.0752 14.2814 2.0752 14.0189 2.0752 11.0002C2.0752 7.98145 2.0752 7.71895 2.0752 6.5377C2.0752 5.4877 2.3377 4.9627 2.46895 4.56895C2.73145 4.04395 2.8627 3.6502 3.25645 3.25645C3.6502 2.8627 4.04395 2.6002 4.56895 2.46895C4.9627 2.3377 5.4877 2.20645 6.5377 2.0752C7.71895 2.0752 8.1127 2.0752 11.0002 2.0752ZM11.0002 0.106445C7.98145 0.106445 7.71895 0.106445 6.5377 0.106445C5.35645 0.106445 4.56895 0.368946 3.9127 0.631446C3.25645 0.893946 2.6002 1.2877 1.94395 1.94395C1.2877 2.6002 1.0252 3.1252 0.631446 3.9127C0.368946 4.56895 0.237695 5.35645 0.106445 6.5377C0.106445 7.71895 0.106445 8.1127 0.106445 11.0002C0.106445 14.0189 0.106445 14.2814 0.106445 15.4627C0.106445 16.6439 0.368946 17.4314 0.631446 18.0877C0.893946 18.7439 1.2877 19.4002 1.94395 20.0564C2.6002 20.7127 3.1252 20.9752 3.9127 21.3689C4.56895 21.6314 5.35645 21.7627 6.5377 21.8939C7.71895 21.8939 8.1127 21.8939 11.0002 21.8939C13.8877 21.8939 14.2814 21.8939 15.4627 21.8939C16.6439 21.8939 17.4314 21.6314 18.0877 21.3689C18.7439 21.1064 19.4002 20.7127 20.0564 20.0564C20.7127 19.4002 20.9752 18.8752 21.3689 18.0877C21.6314 17.4314 21.7627 16.6439 21.8939 15.4627C21.8939 14.2814 21.8939 13.8877 21.8939 11.0002C21.8939 8.1127 21.8939 7.71895 21.8939 6.5377C21.8939 5.35645 21.6314 4.56895 21.3689 3.9127C21.1064 3.25645 20.7127 2.6002 20.0564 1.94395C19.4002 1.2877 18.8752 1.0252 18.0877 0.631446C17.4314 0.368946 16.6439 0.237695 15.4627 0.106445C14.2814 0.106445 14.0189 0.106445 11.0002 0.106445Z" fill="white"></path> <path d="M11.0002 5.35645C7.8502 5.35645 5.35645 7.8502 5.35645 11.0002C5.35645 14.1502 7.8502 16.6439 11.0002 16.6439C14.1502 16.6439 16.6439 14.1502 16.6439 11.0002C16.6439 7.8502 14.1502 5.35645 11.0002 5.35645ZM11.0002 14.6752C9.03145 14.6752 7.3252 13.1002 7.3252 11.0002C7.3252 9.03145 8.9002 7.3252 11.0002 7.3252C12.9689 7.3252 14.6752 8.9002 14.6752 11.0002C14.6752 12.9689 12.9689 14.6752 11.0002 14.6752Z" fill="white"></path> <path d="M16.7752 6.5377C17.5001 6.5377 18.0877 5.95007 18.0877 5.2252C18.0877 4.50032 17.5001 3.9127 16.7752 3.9127C16.0503 3.9127 15.4627 4.50032 15.4627 5.2252C15.4627 5.95007 16.0503 6.5377 16.7752 6.5377Z" fill="white"></path></svg>

