<svg width="22" height="16" viewBox="0 0 22 16" fill="none" xmlns="http://www.w3.org/2000/svg"><g clip-path="url(#clip0_1485_1151)"><path d="M22 13.5363C22 14.1889 21.7425 14.8148 21.284 15.2762C20.8256 15.7377 20.2039 15.9969 19.5556 15.9969H2.44444C1.79614 15.9969 1.17438 15.7377 0.715961 15.2762C0.257539 14.8148 0 14.1889 0 13.5363V2.46367C0 1.81108 0.257539 1.18522 0.715961 0.723773C1.17438 0.262322 1.79614 0.00308228 2.44444 0.00308228H19.5556C20.2039 0.00308228 20.8256 0.262322 21.284 0.723773C21.7425 1.18522 22 1.81108 22 2.46367V13.5363Z" fill="#00AFCA"></path> <path d="M11.6325 8.84767C12.5994 8.84767 13.3833 8.05862 13.3833 7.08528C13.3833 6.11193 12.5994 5.32288 11.6325 5.32288C10.6655 5.32288 9.88165 6.11193 9.88165 7.08528C9.88165 8.05862 10.6655 8.84767 11.6325 8.84767Z" fill="#FFCC4D"></path> <path d="M11.6337 5.19001C11.7376 5.18878 11.7755 5.12296 11.7755 5.04483C11.7755 4.94026 11.6337 4.12457 11.6337 4.12457C11.6337 4.12457 11.4895 4.94026 11.4895 5.04483C11.4895 5.12296 11.5286 5.19001 11.6337 5.19001ZM11.6337 8.99039C11.5286 8.99101 11.4895 9.05683 11.4895 9.13495C11.4895 9.24014 11.6337 10.0448 11.6337 10.0448C11.6337 10.0448 11.7755 9.23953 11.7755 9.13495C11.7761 9.05744 11.7376 8.99039 11.6337 8.99039ZM11.1442 8.91596C11.0434 8.89012 10.9902 8.94364 10.9701 9.01931C10.9432 9.12019 10.8704 9.94572 10.8704 9.94572C10.8704 9.94572 11.2194 9.19462 11.2463 9.09374C11.2671 9.01807 11.2457 8.94303 11.1442 8.91596ZM12.122 5.24476C12.2234 5.27182 12.2784 5.21769 12.2986 5.14264C12.3255 5.04114 12.3927 4.22607 12.3927 4.22607C12.3927 4.22607 12.0493 4.9661 12.0218 5.06821C12.0016 5.14326 12.0212 5.21769 12.122 5.24476ZM10.6902 8.72527C10.5991 8.67421 10.5337 8.71173 10.4952 8.78001C10.4433 8.87044 10.1609 9.6486 10.1609 9.6486C10.1609 9.6486 10.6908 9.01438 10.7427 8.92396C10.7818 8.85568 10.7812 8.77817 10.6902 8.72527ZM12.5779 5.43361C12.6689 5.48651 12.7362 5.44837 12.7747 5.3807C12.8272 5.28966 13.1016 4.52073 13.1016 4.52073C13.1016 4.52073 12.5785 5.14633 12.5259 5.23676C12.4881 5.30443 12.4881 5.38132 12.5779 5.43361ZM10.3003 8.42446C10.2257 8.35125 10.153 8.37032 10.098 8.42569C10.0247 8.50012 9.55167 9.17801 9.55167 9.17801C9.55167 9.17801 10.2269 8.70312 10.3003 8.62992C10.3553 8.57455 10.3748 8.49828 10.3003 8.42446ZM12.9702 5.73626C13.0448 5.81069 13.1187 5.79162 13.1737 5.73626C13.2477 5.66244 13.7109 4.99009 13.7109 4.99009C13.7109 4.99009 13.0454 5.45883 12.9721 5.53326C12.9171 5.58862 12.8969 5.66244 12.9702 5.73626ZM10.0021 8.03138C9.94889 7.94157 9.87372 7.94157 9.80589 7.98032C9.71544 8.03261 9.08478 8.5641 9.08478 8.5641C9.08478 8.5641 9.85906 8.28236 9.94889 8.23007C10.0167 8.1907 10.0546 8.12304 10.0021 8.03138ZM13.2715 6.13119C13.3247 6.22284 13.4017 6.22346 13.4683 6.1847C13.5587 6.1318 14.179 5.604 14.179 5.604C14.179 5.604 13.4157 5.88267 13.3253 5.93495C13.2581 5.97432 13.2202 6.04014 13.2715 6.13119ZM9.81444 7.57432C9.78633 7.47344 9.713 7.45375 9.63783 7.47344C9.53761 7.5005 8.79144 7.84991 8.79144 7.84991C8.79144 7.84991 9.61156 7.77917 9.71178 7.7521C9.78694 7.73119 9.84133 7.67644 9.81444 7.57432ZM13.4603 6.59009C13.4884 6.6922 13.5618 6.71312 13.6369 6.69282C13.7378 6.66575 14.4729 6.31758 14.4729 6.31758C14.4729 6.31758 13.6638 6.3877 13.5624 6.41477C13.4878 6.43445 13.4334 6.4892 13.4603 6.59009ZM9.75028 7.08405C9.74906 6.97947 9.68367 6.94134 9.60606 6.94134C9.50217 6.94134 8.69183 7.08405 8.69183 7.08405C8.69183 7.08405 9.50217 7.22922 9.60606 7.22922C9.68367 7.22922 9.75028 7.18986 9.75028 7.08405ZM13.5257 7.08405C13.5263 7.18986 13.5917 7.22922 13.6693 7.22922C13.7738 7.22922 14.5732 7.08405 14.5732 7.08405C14.5732 7.08405 13.7732 6.94134 13.6693 6.94134C13.5917 6.94072 13.5257 6.97947 13.5257 7.08405ZM9.81444 6.59378C9.84011 6.49228 9.78694 6.43876 9.71178 6.41846C9.61156 6.39139 8.79144 6.31819 8.79144 6.31819C8.79144 6.31819 9.53761 6.66944 9.63783 6.69651C9.713 6.71681 9.78756 6.69589 9.81444 6.59378ZM13.4609 7.5774C13.4341 7.67951 13.4878 7.73488 13.5624 7.75518C13.6632 7.78224 14.4729 7.84991 14.4729 7.84991C14.4729 7.84991 13.7378 7.50358 13.6363 7.47651C13.5618 7.45683 13.4878 7.4759 13.4609 7.5774ZM10.0027 6.13672C10.0534 6.04568 10.0161 5.97924 9.94828 5.94049C9.85844 5.8882 9.08539 5.604 9.08539 5.604C9.08539 5.604 9.71544 6.13734 9.80528 6.18962C9.87311 6.22899 9.95011 6.22776 10.0027 6.13672ZM13.2727 8.03691C13.2202 8.12857 13.2581 8.19624 13.3253 8.23499C13.4151 8.28789 14.1796 8.5641 14.1796 8.5641C14.1796 8.5641 13.5581 8.03814 13.4683 7.98524C13.4011 7.94649 13.3247 7.94649 13.2727 8.03691ZM10.3015 5.74426C10.3742 5.66921 10.3553 5.59601 10.3003 5.54064C10.2263 5.46683 9.55289 4.9907 9.55289 4.9907C9.55289 4.9907 10.0247 5.67044 10.0974 5.74426C10.1524 5.79962 10.2276 5.81931 10.3015 5.74426ZM12.9721 8.43184C12.8981 8.50689 12.9171 8.58194 12.9721 8.63668C13.0454 8.71112 13.7133 9.1774 13.7133 9.1774C13.7133 9.1774 13.2477 8.5075 13.1737 8.43307C13.1187 8.37771 13.0454 8.35741 12.9721 8.43184ZM10.6926 5.44345C10.7812 5.38993 10.7818 5.31427 10.7433 5.24599C10.6914 5.15556 10.1634 4.52011 10.1634 4.52011C10.1634 4.52011 10.4433 5.29951 10.4952 5.38993C10.5337 5.45821 10.6016 5.49635 10.6926 5.44345ZM12.5803 8.73511C12.4899 8.78801 12.4887 8.8649 12.5272 8.93257C12.5797 9.02361 13.1041 9.64799 13.1041 9.64799C13.1041 9.64799 12.8272 8.87905 12.7753 8.78801C12.7362 8.72096 12.6702 8.6822 12.5803 8.73511ZM11.1461 5.2546C11.2463 5.2263 11.2658 5.15249 11.2463 5.07682C11.2194 4.97594 10.8723 4.22484 10.8723 4.22484C10.8723 4.22484 10.9426 5.05037 10.9694 5.15126C10.9896 5.22692 11.0446 5.28167 11.1461 5.2546ZM12.1238 8.92519C12.0224 8.95348 12.0016 9.0273 12.0218 9.10297C12.0487 9.20446 12.3946 9.94449 12.3946 9.94449C12.3946 9.94449 12.3249 9.12942 12.298 9.02853C12.2784 8.95287 12.2241 8.89812 12.1238 8.92519Z" fill="#FFCC4D"></path> <path d="M13.3503 11.4725L13.3277 11.4823L13.3026 11.486L13.2837 11.4897L13.2489 11.4823L13.2336 11.4762L13.2195 11.4694L13.203 11.459L13.1755 11.4393L13.1505 11.419L13.1364 11.4091L13.1187 11.4018L13.1065 11.3987H13.0888L13.0197 11.5432L13.0056 11.5635L12.9922 11.5802L12.9781 11.5906L12.9659 11.6011L12.9482 11.6078H12.9317L12.9164 11.6011L12.895 11.5906L12.8889 11.5802L12.8816 11.5697L12.8743 11.5562L12.8669 11.5402L12.8571 11.4891L12.837 11.5057L12.818 11.5297L12.7801 11.5875L12.7575 11.6177L12.7337 11.6411L12.7209 11.6552L12.7044 11.6657L12.6879 11.673L12.6677 11.6792H12.6579L12.6402 11.6829L12.6237 11.6792L12.6109 11.673L12.5718 11.6257L12.5278 11.5783L12.4978 11.6257L12.463 11.6657L12.4465 11.6823L12.4312 11.6989L12.4147 11.7124L12.3835 11.7296L12.367 11.7333H12.3505L12.3365 11.7296L12.323 11.7223L12.3133 11.7118L12.3004 11.6958C12.2919 11.6708 12.2827 11.6459 12.2729 11.6214L12.2693 11.6041L12.2631 11.5912L12.2558 11.5845H12.2485L12.158 11.7333L12.1452 11.7462L12.1214 11.7567L12.0688 11.7696H12.0376L12.0138 11.7629L12.0065 11.7592L11.9967 11.7487L11.9943 11.7425V11.729L12.0065 11.5802L11.9967 11.5838L11.9704 11.5968C11.9464 11.622 11.9229 11.6479 11.9001 11.6743L11.8702 11.7118L11.8329 11.7432L11.7981 11.7696L11.7785 11.7807L11.7382 11.7868L11.7217 11.7831L11.7144 11.7807L11.7076 11.7733L11.704 11.7629V11.7524L11.7076 11.7093L11.718 11.6411L11.7113 11.6011L11.6973 11.5777L11.6771 11.6078L11.6441 11.6515C11.6166 11.6816 11.5885 11.7112 11.5598 11.7401C11.5437 11.7508 11.528 11.7621 11.5127 11.7739L11.476 11.7868L11.4687 11.7831H11.4583L11.451 11.777L11.4485 11.7733L11.4412 11.7629L11.4388 11.7524V11.7395L11.4351 11.7223L11.4388 11.5943C11.3776 11.6361 11.3159 11.6767 11.2536 11.7155L11.2304 11.7259L11.2041 11.7395C11.179 11.7456 11.1546 11.7518 11.1301 11.7592H11.1057L11.0831 11.7561L11.0623 11.7487L11.0727 11.7216L11.0929 11.6743L11.1057 11.6546L11.1204 11.6343L11.1332 11.614L11.1674 11.5802L11.2047 11.5537L11.2475 11.526L11.2915 11.5057L11.3422 11.4891L11.3923 11.4762L11.5066 11.4559L11.5634 11.4485C11.7321 11.4387 11.9014 11.4374 12.07 11.4387L12.2552 11.4282L12.3126 11.4214L12.419 11.4011L12.4703 11.387L12.518 11.3673L12.562 11.347C12.5852 11.3286 12.609 11.3101 12.6335 11.2929L12.6659 11.2547L12.631 11.1877L12.6585 11.184L12.6848 11.1778L12.7123 11.1643L12.7349 11.1471L12.7447 11.1409L12.7557 11.1305L12.763 11.1169L12.7704 11.1071L12.7728 11.0936V11.0702L12.7655 11.0567L12.8229 11.0462L12.884 11.0394L12.9482 11.0357H13.0148C13.1083 11.0394 13.2012 11.045 13.2941 11.0524C13.4346 11.0696 13.5758 11.0831 13.717 11.0966L13.8435 11.1034V11.1502L13.841 11.1711L13.8337 11.1908L13.8276 11.2111L13.8203 11.2277L13.8105 11.2412C13.7989 11.2547 13.786 11.2683 13.7732 11.2812L13.7433 11.3009L13.7109 11.3144L13.6785 11.3218L13.6412 11.3286L13.5697 11.3218L13.5324 11.3113L13.5 11.2941L13.4652 11.2775L13.4389 11.2535L13.4126 11.2271V11.2849C13.4078 11.3224 13.4016 11.3593 13.3961 11.3968L13.3833 11.4319L13.376 11.446L13.3662 11.4559L13.3589 11.4663L13.3503 11.4725ZM10.6504 11.1545L10.7268 11.1883C10.7421 11.1755 10.7578 11.1632 10.7739 11.1514L10.8038 11.1354L10.8307 11.1182L10.9315 11.0776L11.0183 11.037L11.0623 11.0204L11.1369 10.9804L11.1668 10.9595C11.2426 10.9096 11.319 10.8604 11.3954 10.8118L11.462 10.7645L11.5127 10.7239C11.5628 10.6783 11.6117 10.6322 11.6606 10.5855L11.6808 10.5719L11.704 10.5584C11.7318 10.5442 11.7599 10.5307 11.7883 10.5178L11.8451 10.4981C11.9588 10.4667 12.0743 10.4421 12.1904 10.4237C12.309 10.4095 12.4275 10.3935 12.5461 10.38L12.7038 10.3529C12.7429 10.3419 12.782 10.332 12.8217 10.3228L12.862 10.2717L12.9268 10.201L12.9708 10.1573L13.0197 10.1161L13.0771 10.0724L13.1438 10.0281L13.2452 9.96785C13.3179 9.93094 13.39 9.89403 13.4621 9.85589C13.5905 9.79561 13.717 9.73163 13.8429 9.66643L13.9028 9.62583L13.9193 9.57477L13.9431 9.52494L13.973 9.47388L14.0506 9.36931C14.0861 9.33117 14.1203 9.29303 14.1545 9.25366C14.1961 9.21306 14.2389 9.17369 14.2823 9.13555L14.347 9.08204L14.3794 9.05804L14.4143 9.03467C14.4387 9.02052 14.4631 9.00699 14.4882 8.99407L14.5255 8.97684L14.5615 8.96393L14.6404 8.94301L14.6795 8.94055L14.7168 8.93686L14.7559 8.94055L14.7931 8.9467L14.7907 8.9873L14.7809 9.02729L14.751 9.11218L14.7259 9.15585L14.696 9.20014L14.6593 9.2469L14.6153 9.29426L14.6501 9.29057L14.6801 9.2838L14.7039 9.27642L14.7265 9.26658L14.7705 9.25305L14.8335 9.24628L14.8371 9.27027V9.29365L14.8335 9.31702L14.8274 9.33732L14.8176 9.35762L14.8035 9.37792L14.7907 9.39392L14.7742 9.41114C14.728 9.45597 14.681 9.49986 14.633 9.54278L14.6728 9.54647C14.7021 9.5557 14.7314 9.56493 14.7614 9.57292L14.7938 9.58031L14.7546 9.61106C14.7236 9.63194 14.6923 9.65224 14.6605 9.67196L14.553 9.73286L14.4992 9.76669L14.4454 9.80422L14.3953 9.84482L14.4179 9.84789L14.4491 9.86143L14.4625 9.86512L14.4754 9.87188L14.4864 9.87496L14.4961 9.87188L14.4295 9.90941C14.3879 9.92909 14.3465 9.94939 14.3055 9.97031L14.2541 10.0011L14.2444 10.0115L14.2383 10.022L14.2309 10.0318L14.2334 10.0454L14.2407 10.0558L14.2535 10.0657L14.2658 10.0767L14.2609 10.0896L14.2535 10.1007L14.2407 10.1106L14.2285 10.121L14.1961 10.137L14.157 10.1542L14.0806 10.1813L14.0329 10.2053L14.0995 10.2723L14.0757 10.2957L14.0531 10.3129L14.0329 10.3234L14.0091 10.3332L13.9626 10.34H13.8966L13.904 10.3708L13.9138 10.4009L13.9278 10.4692C13.8862 10.5018 13.8436 10.5332 13.8001 10.5633L13.7225 10.6138L13.6363 10.6642L13.585 10.6882L13.5349 10.7116C13.4783 10.7337 13.421 10.754 13.3631 10.7725L13.233 10.8001L13.1615 10.8106C13.2391 10.8131 13.3167 10.8143 13.3943 10.8137L13.585 10.7934L13.6687 10.7768L13.7426 10.7565C13.7915 10.7399 13.8392 10.7214 13.8869 10.7023L13.9798 10.6593L14.0714 10.6082L14.1576 10.5535L14.2493 10.5L14.1943 10.4729L14.1417 10.4563L14.1166 10.4446C14.0977 10.4354 14.0788 10.4261 14.0592 10.4181L14.028 10.4009L14.0543 10.3812L14.0867 10.3677L14.1215 10.3548C14.1619 10.3449 14.2028 10.3357 14.2431 10.3271C14.2957 10.3216 14.3483 10.3148 14.4008 10.3074L14.4674 10.3006L14.5188 10.2877L14.5322 10.2803L14.542 10.2699L14.5395 10.2662L14.5322 10.2594L14.5224 10.2557L14.5096 10.2496L14.4723 10.2422L14.4246 10.2354L14.3782 10.2317L14.3318 10.225L14.2902 10.2145L14.2651 10.2041L14.5933 10.1302L14.6508 10.113C14.6758 10.1038 14.7003 10.0933 14.7247 10.0829L14.7571 10.062L14.7711 10.049L14.7675 10.046L14.7614 10.0386L14.7302 10.0318L14.6874 10.0281H14.6361C14.6013 10.0257 14.567 10.0232 14.5322 10.022L14.4894 10.0146L14.4619 10.0078L14.5096 9.98815C14.5805 9.966 14.6526 9.9457 14.7247 9.92663C14.7656 9.91248 14.8072 9.89834 14.8488 9.88603L14.9123 9.85897L14.9423 9.84236L14.9698 9.82575L14.9795 9.81529L14.9899 9.80176L14.9997 9.79192L15.0034 9.78146L14.9997 9.771L14.9899 9.76362L14.9795 9.76116H14.8866L14.8426 9.76362H14.7828L14.765 9.76116L14.7534 9.75378L14.7388 9.74701C14.861 9.66581 14.9844 9.58523 15.1085 9.50649L15.205 9.43882C15.2311 9.41713 15.2565 9.39477 15.2814 9.37177L15.3114 9.33794L15.3389 9.3041L15.359 9.26719L15.3755 9.23029L15.3853 9.18907V9.1454H15.3627L15.3389 9.14909L15.2863 9.16877C15.2398 9.19824 15.1925 9.22655 15.1445 9.25366L15.1183 9.27089L15.0871 9.2838L15.0571 9.29426L15.0296 9.30103L15.0034 9.30472H14.9722L14.9459 9.29426L15.0272 9.23336C15.0926 9.17738 15.1574 9.12079 15.2215 9.0642C15.2925 8.99597 15.3617 8.92603 15.4293 8.85443L15.5259 8.74616C15.5546 8.70802 15.5839 8.67112 15.6139 8.63421C15.6377 8.59976 15.6615 8.5647 15.6841 8.52963L15.6915 8.51671L15.6939 8.50626L15.6915 8.49211L15.6878 8.48227L15.6841 8.47119L15.6744 8.46443L15.664 8.45397L15.6542 8.45028L15.6414 8.44413L15.6267 8.44044H15.6004L15.5876 8.44413L15.5699 8.44659L15.5601 8.45766L15.546 8.46812C15.4776 8.53701 15.4098 8.60714 15.3431 8.67788L15.2619 8.75539C15.2085 8.80221 15.1547 8.84856 15.1005 8.89442C15.075 8.9118 15.0492 8.92862 15.0229 8.94486L14.949 8.98238L14.9716 8.96208C14.996 8.93871 15.0199 8.91533 15.0431 8.89134C15.1293 8.79168 15.2118 8.68834 15.2912 8.58376L15.4464 8.36416L15.488 8.29034L15.5295 8.22267L15.5631 8.16116L15.5894 8.10333L15.6059 8.05658L15.6096 8.03997V8.01291L15.6059 8.00245L15.5937 7.98215L15.5864 7.97538L15.5754 7.97231L15.5564 7.96124L15.5314 7.95447H15.4855L15.4727 7.95816L15.4629 7.96124L15.4489 7.96862L15.4391 7.97846L15.4116 8.00245C15.3815 8.03896 15.3523 8.0763 15.3242 8.11441C15.257 8.22021 15.1861 8.32356 15.1128 8.42506L15.0278 8.52656L14.985 8.57085L14.9386 8.61145L14.9985 8.49888L15.0926 8.30018L15.1537 8.15501L15.18 8.08057L15.2264 7.92802C15.238 7.87881 15.2484 7.82959 15.2576 7.77977C15.2619 7.73363 15.2655 7.68749 15.2686 7.64074L15.2637 7.60691L15.2613 7.57677L15.2576 7.5454L15.2478 7.50603L15.2405 7.49495L15.224 7.47834L15.2014 7.4685L15.1763 7.46112H15.1537L15.1323 7.46481L15.1262 7.4685L15.1164 7.47096L15.1128 7.47834C15.0523 7.67027 15.0064 7.86589 14.9539 8.05966C14.9343 8.11379 14.9148 8.16793 14.894 8.22206L14.8439 8.31987L14.8127 8.36354L14.8329 8.26635C14.8426 8.20976 14.8512 8.15378 14.8591 8.09718L14.8732 7.95816L14.8769 7.90034C14.875 7.87097 14.8726 7.84164 14.8695 7.81237L14.8634 7.77854L14.8536 7.75147L14.8396 7.73117L14.8323 7.7244L14.8121 7.71764L14.8023 7.71395H14.7913L14.7815 7.71764L14.754 7.7244L14.7278 7.73794C14.707 7.84251 14.6819 7.94647 14.6538 8.0492C14.6138 8.17878 14.5669 8.3061 14.5133 8.43059C14.477 8.5071 14.4387 8.58259 14.3984 8.65697L14.3244 8.78553L14.2444 8.90672C14.1907 8.98238 14.135 9.05663 14.0775 9.1294C14.0213 9.19338 13.9639 9.25612 13.9058 9.31887C13.8453 9.37854 13.7836 9.43759 13.7206 9.49541C13.6559 9.54955 13.5905 9.60184 13.5239 9.65351C13.4426 9.71264 13.3595 9.76906 13.2745 9.82267L13.1266 9.91002L12.8914 10.0189L12.6494 10.1063L12.4489 10.1678L12.2411 10.2145L12.1373 10.2317L11.9246 10.2588L11.817 10.2656L11.8066 10.2693L11.7963 10.2723L11.7761 10.2834L11.7535 10.2994C11.7272 10.3225 11.7013 10.3461 11.6759 10.3702L11.6221 10.4249L11.4271 10.6439L11.3532 10.7183L11.2664 10.7854L11.2322 10.8088L11.1986 10.8297L11.1253 10.8635C11.0116 10.9103 10.8961 10.9527 10.7818 10.9988L10.7519 11.0154L10.725 11.0296L10.7054 11.0425L10.6681 11.08L10.6578 11.0966L10.6504 11.1133L10.648 11.1372V11.1545" fill="#FFCC4D"></path> <path d="M11.8806 11.3064L11.9368 11.3138L11.9643 11.3242L11.9704 11.3273V11.331H11.9643L11.957 11.3341L11.9032 11.3445H11.8604L11.7199 11.3341L11.3636 11.3273C11.2695 11.3285 11.1754 11.331 11.0813 11.3341C10.9982 11.3402 10.9157 11.347 10.8325 11.3544L10.7684 11.3648L10.7115 11.3778C10.6981 11.3827 10.6853 11.3876 10.6718 11.3913L10.6547 11.3987L10.6413 11.4091L10.6474 11.3747L10.662 11.3402L10.615 11.3538L10.5747 11.3741L10.5588 11.3845L10.5447 11.3981L10.5343 11.4141L10.5319 11.4313L10.5221 11.4079L10.5148 11.387C10.513 11.3723 10.5105 11.3578 10.5074 11.3433C10.5111 11.3255 10.5148 11.3076 10.5172 11.2898L10.5282 11.2726L10.5343 11.259L10.5484 11.243L10.5753 11.216L10.6119 11.192L10.6535 11.1686C10.6754 11.1815 10.6988 11.1916 10.7232 11.1988C10.7472 11.2009 10.7714 11.1986 10.7947 11.192C10.8319 11.2252 10.9285 11.2184 10.9419 11.1582C10.9471 11.1359 10.9471 11.1127 10.9419 11.0905L10.9823 11.0874L11.0293 11.08L11.1332 11.053L11.1876 11.0425L11.2377 11.0296L11.2848 11.0228L11.3245 11.0191L11.308 11.0333L11.2206 11.1003L11.1876 11.1237L11.2304 11.1348L11.2677 11.1415L11.1882 11.2326L11.1674 11.2597L11.1937 11.2701L11.2206 11.2775L11.2512 11.2843H11.3117L11.3715 11.2707L11.3954 11.2566L11.4229 11.2707L11.4498 11.2812C11.4669 11.2861 11.4846 11.291 11.5023 11.2947C11.5439 11.299 11.5854 11.3039 11.6276 11.3076H11.8806M11.5744 10.2791L11.5445 10.34L11.5103 10.4181C11.4927 10.45 11.4762 10.4824 11.4608 10.5153L11.4437 10.5325L11.4039 10.4987L11.3599 10.468L11.3129 10.444L11.2634 10.4243L11.1552 10.3966L11.102 10.3868C11.0439 10.38 10.9856 10.3744 10.9273 10.3701C10.85 10.3689 10.7727 10.3652 10.6957 10.3591L10.5881 10.3462L10.5276 10.3357L10.4708 10.3228L10.4109 10.3019L10.3602 10.2754L10.3229 10.2508L10.2459 10.1936C10.1334 10.0872 10.0222 9.97953 9.90671 9.87557L9.8401 9.82882L9.80955 9.81528L9.77777 9.80544L9.72093 9.79252C9.68775 9.7806 9.65433 9.76932 9.62071 9.75869C9.58943 9.74351 9.55785 9.72895 9.52599 9.71501C9.47057 9.68046 9.41693 9.64309 9.36527 9.60306L9.33166 9.57169L9.26505 9.50463L9.20088 9.43389C9.09516 9.3041 8.99555 9.16999 8.89227 9.03835C8.84288 8.98557 8.79256 8.93368 8.74132 8.88272L8.69793 8.84274L8.65393 8.80583L8.55738 8.73508L8.5476 8.73816L8.5366 8.74862L8.52621 8.76215C8.5201 8.77753 8.51521 8.79352 8.51032 8.80952L8.50666 8.82305L8.48221 8.81198L8.46205 8.80152L8.4376 8.79106L8.41743 8.7843H8.37405L8.35021 8.79106L8.32699 8.80152C8.34532 8.8249 8.36305 8.84827 8.38016 8.87226L8.4101 8.91963L8.46449 9.0242L8.48405 9.07526L8.49138 9.10233L8.49871 9.12263L8.50177 9.146V9.16569H8.32088L8.34716 9.20629C8.36732 9.23397 8.38871 9.26104 8.4101 9.28749L8.52132 9.39944L8.5586 9.42959L8.59282 9.45358C8.56375 9.45665 8.53461 9.45911 8.50543 9.46096L8.41743 9.4708L8.44738 9.49848C8.47366 9.51694 8.49932 9.53601 8.52499 9.55569L8.56838 9.58583L8.61238 9.6129L8.65577 9.63689L8.6961 9.65042L8.73338 9.66027L8.76332 9.66703L8.7731 9.67072L8.78043 9.67811L8.78288 9.68118V9.6941L8.7731 9.72178L8.77066 9.74147L8.76638 9.755V9.76484L8.77066 9.78207L8.7731 9.7956L8.78043 9.80175L8.79021 9.80913L8.80305 9.8159L8.82016 9.81959L8.85438 9.83312L8.87088 9.83927L8.88432 9.84973L8.88738 9.85342V9.86019L8.88432 9.86388L8.85743 9.88357L8.84399 9.8971L8.83055 9.91371V9.92786L8.82749 9.94139L8.83421 9.97768L8.95155 10.0183L8.97843 10.0244L9.00532 10.0355L9.02549 10.046L9.0426 10.0564L8.93138 10.1444L8.96132 10.1715L8.9986 10.1918L9.04566 10.2151C9.07927 10.2274 9.11288 10.2385 9.1471 10.2496L9.19721 10.2594L9.24121 10.2699H9.28093L9.24366 10.2969L9.1966 10.3271L9.14649 10.3548L9.10921 10.3818L9.14282 10.4052C9.24488 10.4581 9.34938 10.5073 9.45571 10.551C9.64149 10.6273 9.83155 10.6937 10.0228 10.7534C10.0656 10.7638 10.1078 10.7749 10.1499 10.7872L10.2037 10.7977L10.0955 10.7872C10.0283 10.7785 9.96127 10.7682 9.89449 10.7565L9.80038 10.7362L9.61521 10.6826L9.52843 10.6519C9.29621 10.5608 9.06949 10.4563 8.83666 10.3677L8.85377 10.3578L8.90082 10.3406L8.93077 10.3339C8.97171 10.3216 9.01143 10.308 9.05177 10.2933C8.97175 10.281 8.89208 10.2667 8.81282 10.2502C8.77175 10.2368 8.73039 10.2242 8.68877 10.2127L8.66493 10.2022L8.64477 10.1918L8.62827 10.1807L8.61727 10.1708V10.1678L8.62093 10.1641L8.63132 10.1604L8.6411 10.1536L8.66799 10.1432L8.78532 10.1087L8.85316 10.0853C8.75599 10.0669 8.65821 10.0503 8.56043 10.0349L8.51338 10.0238L8.4761 10.0109L8.46266 10.0035L8.44982 9.99306L8.43882 9.98691L8.4321 9.97584L8.44249 9.96907L8.47243 9.9623C8.5036 9.95738 8.53538 9.95185 8.56655 9.9457L8.62032 9.93893C8.65088 9.93032 8.68082 9.92109 8.71077 9.91125L8.72482 9.9014L8.73827 9.89033L8.6851 9.87003L8.65088 9.86388L8.61727 9.8565L8.46327 9.8362L8.42293 9.82636L8.38566 9.81898L8.31171 9.79252L8.27749 9.7753L8.24999 9.75561L8.2231 9.73162L8.20293 9.70148L8.21027 9.69779L8.2231 9.6941H8.24021L8.2671 9.69779L8.39482 9.70456L8.46938 9.71194H8.56288L8.58916 9.70825L8.60993 9.70148L8.62338 9.6941C8.56015 9.66819 8.4974 9.64112 8.43516 9.6129C8.39396 9.59186 8.3524 9.57156 8.31049 9.552L8.18338 9.48495L8.12288 9.44743C8.08561 9.42091 8.04874 9.39384 8.01227 9.36623L7.96521 9.32563L7.94443 9.30225L7.92366 9.28195L7.91082 9.26165L7.89677 9.23766L7.88332 9.21798L7.87599 9.1946L7.87049 9.15092H7.8931L7.91999 9.154L7.94688 9.16507L7.97377 9.17491L8.02693 9.20875L8.08743 9.24258L8.11432 9.25981L8.14427 9.2758L8.17421 9.28933L8.2011 9.29979L8.23105 9.30717L8.25793 9.31025H8.28849L8.31477 9.29979L8.23532 9.23828C8.16951 9.18329 8.10452 9.1273 8.04038 9.07034C7.93402 8.9684 7.83188 8.8621 7.73421 8.75169L7.69144 8.69448L7.64743 8.64035C7.62331 8.60563 7.59968 8.57056 7.57655 8.53516L7.57043 8.52163V8.49825L7.57349 8.48779L7.57655 8.47795L7.58693 8.47119L7.59671 8.46073L7.60771 8.45335L7.62055 8.44966L7.63399 8.44719H7.66088L7.67738 8.44966L7.69205 8.45335L7.70488 8.4638C7.7776 8.53639 7.8491 8.60959 7.91938 8.68403C7.99699 8.75907 8.07766 8.83166 8.16138 8.90056L8.23838 8.95039L8.2781 8.9713L8.31538 8.98422L8.2891 8.96761L8.21882 8.89687C8.13266 8.79721 8.05077 8.69387 7.9701 8.58929C7.93457 8.54017 7.89974 8.49054 7.8656 8.44043C7.83516 8.39143 7.80378 8.34303 7.77149 8.29525C7.74589 8.25296 7.72124 8.21009 7.69755 8.16669C7.68392 8.13157 7.66966 8.09671 7.65477 8.06211L7.65049 8.0455V8.01782L7.65477 8.00798L7.6676 7.98768L7.67493 7.9803L7.68532 7.97415L7.72871 7.96H7.77577L7.78921 7.96307L7.79899 7.96676L7.81244 7.97415L7.84971 8.00798L7.9371 8.11994C8.00555 8.22574 8.07766 8.32909 8.15221 8.43059L8.23166 8.53209L8.27566 8.57576L8.32271 8.61636C8.26919 8.51414 8.21784 8.41077 8.16871 8.30633C8.14792 8.2582 8.12775 8.20981 8.10821 8.16115L8.08132 8.08672C8.06712 8.03541 8.05143 7.98454 8.03427 7.93416L8.01777 7.85973L8.00555 7.78407L7.99821 7.71332L7.99516 7.64627L7.99821 7.61244L8.00249 7.58168L8.00555 7.55092L8.01227 7.52078L8.01899 7.50971L8.02266 7.49987L8.03243 7.48879L8.03916 7.48264L8.06238 7.47219L8.08621 7.46603H8.10944L8.1296 7.46973L8.13938 7.47219L8.14671 7.47588L8.15038 7.48326L8.15405 7.4931C8.21149 7.68195 8.25855 7.87388 8.30805 8.06519C8.3276 8.11871 8.34777 8.17161 8.36916 8.2239L8.39238 8.27434L8.41927 8.32171L8.44921 8.36907L8.42966 8.27065C8.42198 8.21447 8.41302 8.15847 8.40277 8.10271C8.39606 8.03741 8.39055 7.97199 8.38627 7.90648L8.39299 7.81851L8.39971 7.78407L8.4101 7.75761L8.42355 7.73731L8.43027 7.72993L8.44005 7.72317L8.44982 7.72009H8.48038L8.50788 7.72993L8.53416 7.74347L8.58121 7.95631C8.59832 8.0209 8.61727 8.08549 8.63805 8.14885C8.67227 8.24543 8.70955 8.34139 8.74927 8.43612L8.79632 8.53393L8.86355 8.66311L8.93688 8.79106L9.01816 8.91286L9.10493 9.03405L9.18621 9.13555C9.24243 9.19952 9.29927 9.26288 9.35732 9.32501C9.41782 9.38468 9.47955 9.44312 9.54249 9.50033L9.63966 9.58214C9.72888 9.65227 9.82055 9.71871 9.91527 9.78145C9.98921 9.82574 10.0644 9.8688 10.1402 9.91002L10.3712 10.022C10.4885 10.0687 10.607 10.1118 10.7268 10.1499C10.8442 10.1813 10.9633 10.2084 11.0831 10.2311C11.2438 10.257 11.4088 10.2723 11.5744 10.2791Z" fill="#FFCC4D"></path> <path d="M2.11263 14.4726C2.11263 14.4726 1.9678 14.5938 1.91891 14.5329C1.84008 14.4344 2.16152 13.9429 2.16152 13.7695C2.16152 13.4859 1.97269 13.4072 1.74047 13.3672C1.58402 13.3401 1.33041 13.3789 1.33041 13.3789C1.37808 13.4434 1.40924 13.4637 1.48991 13.4674C1.43433 13.4969 1.38798 13.5413 1.35603 13.5957C1.32409 13.6501 1.30781 13.7124 1.30902 13.7756C1.30902 14.0192 1.40924 14.1201 1.40924 14.3963C1.40924 14.5495 1.28458 14.7439 1.28458 14.7439C1.50458 14.7217 1.61458 14.5169 1.55224 14.352C1.56908 14.3488 1.58643 14.3498 1.60282 14.3549C1.61921 14.3599 1.63414 14.3688 1.64635 14.3809C1.66224 14.336 1.63719 14.2825 1.60297 14.2376C1.63047 14.2235 1.65063 14.2321 1.69402 14.2407C1.68974 14.1939 1.66163 14.1447 1.5938 14.098C1.7918 14.149 1.91341 14.0106 1.91341 13.8654C1.91341 13.7547 1.83702 13.676 1.76185 13.676C1.73339 13.6769 1.70571 13.6856 1.6818 13.7012C1.66774 13.6717 1.67508 13.6311 1.68913 13.6009C1.63474 13.6151 1.59991 13.6477 1.62497 13.7166C1.60633 13.7169 1.58795 13.7211 1.57102 13.7289C1.55408 13.7368 1.53894 13.7481 1.52658 13.7621C1.53827 13.7768 1.5533 13.7886 1.57042 13.7963C1.58754 13.804 1.60624 13.8074 1.62497 13.8064C1.59441 13.8704 1.62863 13.9067 1.67813 13.9349C1.67813 13.9349 1.64635 13.8064 1.72763 13.8064C1.7643 13.8064 1.7973 13.8193 1.7973 13.8728C1.7973 13.919 1.75635 13.9842 1.66224 13.9805C1.56752 13.9762 1.49113 13.9146 1.49113 13.7639C1.49113 13.6231 1.60297 13.5536 1.75024 13.5492C1.88347 13.5449 1.98369 13.6175 1.98369 13.7559C1.98369 13.9393 1.71969 14.3588 1.71969 14.5224C1.71969 14.6454 1.82908 14.7137 1.93663 14.7137C2.07597 14.7137 2.1933 14.5747 2.1933 14.5747L2.11263 14.4726ZM2.08208 11.1496C2.08208 10.8432 2.35585 10.6851 2.57097 10.6851C2.86063 10.6851 3.01524 10.8598 3.01524 11.0874C3.01524 11.2178 2.99141 11.299 2.93213 11.4227L2.26785 12.8111C2.24354 12.8694 2.23288 12.9325 2.23669 12.9956C2.23669 13.1199 2.35708 13.222 2.48297 13.2251C2.59724 13.2281 2.72252 13.1174 2.72252 12.9913C2.72252 12.8381 2.6443 12.7705 2.56302 12.7705C2.46341 12.7705 2.42369 12.8111 2.42369 12.8818C2.42369 12.9316 2.44752 12.9526 2.48113 12.9526C2.56669 12.9526 2.54285 12.8369 2.54285 12.8369C2.55424 12.8393 2.56496 12.8442 2.57427 12.8512C2.58358 12.8582 2.59124 12.8672 2.59672 12.8775C2.6022 12.8878 2.60536 12.8993 2.60598 12.9109C2.6066 12.9226 2.60466 12.9343 2.6003 12.9452C2.6323 12.9519 2.66125 12.969 2.6828 12.9938C2.66079 13.0174 2.6319 13.0333 2.6003 13.0393C2.62047 13.1057 2.59358 13.1383 2.53613 13.1525C2.54603 13.1301 2.54881 13.1052 2.54408 13.0811C2.45302 13.107 2.31369 13.0664 2.31369 12.9076C2.31369 12.7502 2.42185 12.6179 2.62535 12.6505C2.57647 12.6284 2.55263 12.581 2.54774 12.5269C2.58441 12.5423 2.62535 12.5441 2.62535 12.5441C2.60152 12.5023 2.56852 12.466 2.56974 12.3823C2.60763 12.4002 2.64247 12.4315 2.69074 12.4112C2.61497 12.2617 2.70785 12.0563 2.94497 12.0065C2.86447 12.0945 2.81863 12.2091 2.81602 12.3288C2.81602 12.6856 2.91502 12.7446 2.91502 12.9919C2.91338 13.0496 2.89825 13.106 2.87085 13.1567C2.84346 13.2074 2.80457 13.2508 2.75735 13.2835V13.2792C2.8258 13.2977 2.87041 13.3327 2.89608 13.3789C2.7378 13.4238 2.50741 13.4231 2.38458 13.3745C2.3289 13.3664 2.27571 13.3459 2.22889 13.3145C2.18206 13.2832 2.14276 13.2417 2.11385 13.1931C2.08398 13.1238 2.06857 13.049 2.06857 12.9735C2.06857 12.8979 2.08398 12.8232 2.11385 12.7539C2.20797 12.5564 2.65163 11.6097 2.78974 11.3113C2.82021 11.248 2.83628 11.1787 2.8368 11.1083C2.8368 10.9269 2.67119 10.8629 2.57708 10.8629C2.46402 10.8629 2.34913 10.9502 2.34913 11.0573C2.34913 11.1262 2.38641 11.1668 2.43897 11.1668C2.56669 11.1668 2.55874 11.0579 2.53308 10.989C2.61191 11.0259 2.65835 11.0887 2.64552 11.1563C2.69074 11.1625 2.73352 11.184 2.77263 11.2283C2.74147 11.2689 2.70358 11.2984 2.64552 11.299C2.67119 11.4036 2.60152 11.4479 2.53308 11.4719C2.55447 11.3956 2.56852 11.3064 2.43897 11.3064C2.34424 11.3064 2.26969 11.2898 2.2263 11.2277C2.22324 11.3107 2.2153 11.6368 2.2153 11.6368C2.21041 11.7598 2.37847 11.7561 2.48541 11.7198C2.44447 11.8613 2.36197 11.9382 2.16947 11.9185C2.19895 11.9299 2.22412 11.9504 2.24145 11.977C2.25877 12.0036 2.26736 12.035 2.26602 12.0667C2.26602 12.1824 2.17313 12.3097 2.11263 12.3479L2.08208 11.1496Z" fill="#FFCC4D"></path> <path d="M2.14258 11.1496C2.14258 10.8432 1.8688 10.6851 1.65369 10.6851C1.36402 10.6851 1.20941 10.8598 1.20941 11.0874C1.20941 11.2178 1.23324 11.299 1.29252 11.4227L1.9568 12.8111C1.9809 12.8694 1.99136 12.9326 1.98736 12.9956C1.98736 13.1199 1.86697 13.222 1.74169 13.2251C1.6268 13.2281 1.50213 13.1174 1.50213 12.9913C1.50213 12.8381 1.58036 12.7705 1.66163 12.7705C1.76125 12.7705 1.80097 12.8111 1.80097 12.8818C1.80097 12.9316 1.77713 12.9526 1.74352 12.9526C1.65797 12.9526 1.6818 12.8369 1.6818 12.8369C1.67042 12.8393 1.65969 12.8442 1.65038 12.8512C1.64107 12.8582 1.63341 12.8672 1.62793 12.8775C1.62245 12.8879 1.61929 12.8993 1.61867 12.911C1.61806 12.9226 1.62 12.9343 1.62436 12.9452C1.59235 12.952 1.5634 12.969 1.54186 12.9938C1.56386 13.0174 1.59276 13.0333 1.62436 13.0393C1.6048 13.1057 1.63169 13.1383 1.68913 13.1519C1.67923 13.1295 1.67646 13.1046 1.68119 13.0805C1.77224 13.1064 1.91158 13.0658 1.91158 12.907C1.91158 12.7496 1.80341 12.6173 1.60052 12.6499C1.6488 12.6278 1.67324 12.5804 1.67752 12.5263C1.65288 12.5359 1.62691 12.5417 1.60052 12.5435C1.62374 12.5017 1.65675 12.4654 1.65552 12.3817C1.61763 12.3995 1.58341 12.4309 1.53452 12.4106C1.6103 12.2611 1.51741 12.0557 1.2803 12.0059C1.36079 12.0939 1.40663 12.2085 1.40924 12.3282C1.40924 12.685 1.31086 12.744 1.31086 12.9913C1.31086 13.0947 1.36402 13.2072 1.46852 13.2829V13.2786C1.43976 13.2845 1.41254 13.2964 1.38865 13.3136C1.36475 13.3308 1.3447 13.3528 1.3298 13.3782C1.48808 13.4232 1.71786 13.4225 1.8413 13.3739C1.89698 13.3658 1.95016 13.3453 1.99699 13.3139C2.04382 13.2825 2.08311 13.2411 2.11202 13.1925C2.14189 13.1232 2.15731 13.0484 2.15731 12.9729C2.15731 12.8973 2.14189 12.8226 2.11202 12.7533C2.01791 12.5558 1.57424 11.6091 1.43613 11.3107C1.40567 11.2474 1.38959 11.1781 1.38908 11.1077C1.38908 10.9263 1.55469 10.8623 1.6488 10.8623C1.76186 10.8623 1.87675 10.9496 1.87675 11.0567C1.87675 11.1256 1.83947 11.1662 1.78691 11.1662C1.65919 11.1662 1.66713 11.0573 1.69219 10.9884C1.61336 11.0253 1.56691 11.088 1.57974 11.1557C1.53007 11.1633 1.48486 11.1889 1.45263 11.2277C1.4838 11.2683 1.52169 11.2978 1.57974 11.2984C1.55408 11.403 1.62374 11.4473 1.69219 11.4713C1.6708 11.395 1.65674 11.3058 1.78691 11.3058C1.88163 11.3058 1.95619 11.2892 1.99958 11.2271L2.01058 11.6361C2.01547 11.7592 1.8468 11.7555 1.73986 11.7192C1.78019 11.8601 1.8633 11.937 2.05519 11.9173C2.02571 11.9287 2.00053 11.9492 1.98321 11.9758C1.96589 12.0023 1.95729 12.0337 1.95863 12.0655C1.95863 12.1812 2.05091 12.3085 2.11202 12.3466L2.14258 11.1496ZM2.11263 14.4726C2.11263 14.4726 2.25747 14.5938 2.30636 14.5329C2.38519 14.4345 2.06375 13.943 2.06375 13.7695C2.06375 13.4859 2.25258 13.4072 2.4848 13.3672C2.64124 13.3401 2.89547 13.3789 2.89547 13.3789C2.84719 13.4435 2.81663 13.4638 2.73597 13.4674C2.7915 13.4969 2.83782 13.5413 2.86975 13.5958C2.90169 13.6502 2.918 13.7124 2.91686 13.7756C2.91686 14.0192 2.81663 14.1201 2.81663 14.3963C2.81663 14.5495 2.9413 14.7439 2.9413 14.7439C2.7213 14.7217 2.6113 14.5169 2.67363 14.352C2.65679 14.349 2.63947 14.35 2.6231 14.355C2.60673 14.36 2.59179 14.3689 2.57952 14.3809C2.56363 14.336 2.5893 14.2825 2.62291 14.2376C2.59541 14.2235 2.57524 14.2321 2.53186 14.2407C2.53613 14.1939 2.56363 14.1447 2.63208 14.098C2.43408 14.149 2.31247 14.0106 2.31247 13.8654C2.31247 13.7547 2.38886 13.676 2.46402 13.676C2.48847 13.676 2.52391 13.6864 2.54408 13.7012C2.55813 13.6717 2.5508 13.6311 2.53613 13.6009C2.59113 13.6151 2.62536 13.6477 2.60091 13.7166C2.61954 13.7169 2.6379 13.7211 2.65484 13.729C2.67177 13.7368 2.68691 13.7481 2.6993 13.7621C2.68761 13.7769 2.67258 13.7886 2.65546 13.7963C2.63834 13.804 2.61963 13.8075 2.60091 13.8064C2.63147 13.8704 2.59724 13.9067 2.54774 13.935C2.54774 13.935 2.57952 13.8064 2.49824 13.8064C2.46158 13.8064 2.42858 13.8193 2.42858 13.8728C2.42858 13.919 2.46952 13.9842 2.56363 13.9805C2.65775 13.9762 2.73413 13.9147 2.73413 13.7639C2.73413 13.6231 2.6223 13.5536 2.47502 13.5493C2.3418 13.545 2.24158 13.6175 2.24158 13.7559C2.24158 13.9393 2.50558 14.3588 2.50558 14.5224C2.50558 14.6455 2.39619 14.7137 2.28863 14.7137C2.1493 14.7137 2.03197 14.5747 2.03197 14.5747L2.11263 14.4726ZM2.08208 5.77133C2.08208 5.46375 2.35586 5.30627 2.57097 5.30627C2.86063 5.30627 3.01524 5.48098 3.01524 5.7092C3.01524 5.83899 2.99141 5.92019 2.93213 6.04384L2.26786 7.43284C2.24351 7.49091 2.23284 7.55386 2.23669 7.61677C2.23669 7.74165 2.35708 7.84314 2.48297 7.84684C2.59724 7.8493 2.72252 7.73857 2.72252 7.61308C2.72252 7.46052 2.6443 7.39224 2.56302 7.39224C2.46341 7.39224 2.42369 7.43346 2.42369 7.5042C2.42369 7.55279 2.44752 7.57433 2.48113 7.57433C2.56669 7.57433 2.54286 7.45868 2.54286 7.45868C2.55414 7.461 2.56479 7.46579 2.57404 7.47271C2.58329 7.47962 2.59092 7.48849 2.5964 7.4987C2.60187 7.5089 2.60506 7.52019 2.60573 7.53177C2.60641 7.54335 2.60455 7.55493 2.6003 7.56571C2.63233 7.57278 2.66126 7.59003 2.6828 7.61493C2.6607 7.63852 2.63188 7.65464 2.6003 7.66106C2.62047 7.7275 2.59358 7.75948 2.53613 7.77363C2.54607 7.75125 2.54885 7.72632 2.54408 7.70228C2.45302 7.72811 2.31369 7.68751 2.31369 7.5288C2.31369 7.37194 2.42186 7.23968 2.62536 7.27229C2.57647 7.24891 2.55263 7.20154 2.54774 7.14864C2.58441 7.16341 2.62536 7.16464 2.62536 7.16464C2.60152 7.12281 2.56852 7.08651 2.56974 7.00347C2.60763 7.02069 2.64247 7.05268 2.69074 7.03238C2.61497 6.88228 2.70786 6.67621 2.94497 6.62761C2.86467 6.71582 2.81886 6.83034 2.81602 6.94995C2.81602 7.30612 2.91502 7.36579 2.91502 7.61369C2.91502 7.71704 2.86186 7.829 2.75736 7.90527V7.90097C2.82458 7.91942 2.86858 7.95326 2.89486 8.00001C2.73658 8.04553 2.50619 8.0443 2.38336 7.9957C2.32772 7.98746 2.27458 7.96691 2.22777 7.93553C2.18097 7.90416 2.14164 7.86273 2.11263 7.81423C2.08276 7.74514 2.06734 7.67059 2.06734 7.59524C2.06734 7.51989 2.08276 7.44534 2.11263 7.37625C2.20674 7.17817 2.65041 6.23146 2.78852 5.93311C2.81867 5.86969 2.83472 5.80041 2.83558 5.73011C2.83558 5.54803 2.66997 5.48405 2.57586 5.48405C2.4628 5.48405 2.34791 5.57079 2.34791 5.67782C2.34791 5.74672 2.38519 5.78794 2.43775 5.78794C2.56547 5.78794 2.55752 5.67844 2.53186 5.61016C2.61069 5.64584 2.65713 5.70981 2.6443 5.77748C2.68952 5.78363 2.7323 5.80454 2.77141 5.85007C2.74024 5.88943 2.70236 5.91896 2.6443 5.92019C2.66997 6.02538 2.6003 6.06967 2.53186 6.09366C2.55324 6.01739 2.5673 5.9288 2.43775 5.9288C2.34302 5.9288 2.26847 5.91219 2.22508 5.85068C2.22202 5.93311 2.21408 6.25975 2.21408 6.25975C2.20919 6.38217 2.37724 6.37909 2.48419 6.34218C2.44447 6.48367 2.36197 6.55995 2.16947 6.54026C2.199 6.5518 2.2242 6.57237 2.24151 6.59907C2.25883 6.62577 2.2674 6.65727 2.26602 6.68913C2.26602 6.80416 2.17313 6.93211 2.11263 6.96963L2.08208 5.77133Z" fill="#FFCC4D"></path> <path d="M2.14258 5.77133C2.14258 5.46375 1.8688 5.30627 1.65369 5.30627C1.36402 5.30627 1.20941 5.48098 1.20941 5.7092C1.20941 5.83899 1.23324 5.92019 1.29252 6.04384L1.9568 7.43284C1.98002 7.48144 1.98736 7.53619 1.98736 7.61677C1.98736 7.74165 1.86697 7.84314 1.74169 7.84683C1.6268 7.8493 1.50213 7.73857 1.50213 7.61308C1.50213 7.46052 1.58036 7.39224 1.66163 7.39224C1.76124 7.39224 1.80097 7.43346 1.80097 7.5042C1.80097 7.55279 1.77713 7.57433 1.74352 7.57433C1.65797 7.57433 1.6818 7.45868 1.6818 7.45868C1.67046 7.4609 1.65975 7.46563 1.65044 7.47253C1.64113 7.47942 1.63345 7.4883 1.62796 7.49853C1.62246 7.50877 1.61929 7.5201 1.61867 7.53172C1.61805 7.54333 1.61999 7.55494 1.62436 7.56571C1.59232 7.57278 1.5634 7.59003 1.54186 7.61492C1.56396 7.63852 1.59278 7.65463 1.62436 7.66106C1.6048 7.7275 1.63108 7.75948 1.68852 7.77363C1.67858 7.75125 1.67581 7.72632 1.68058 7.70228C1.77163 7.72811 1.91097 7.68751 1.91097 7.5288C1.91097 7.37194 1.8028 7.23968 1.59991 7.27229C1.64819 7.24891 1.67263 7.20154 1.67691 7.14864C1.64024 7.16341 1.59991 7.16464 1.59991 7.16464C1.62313 7.12281 1.65613 7.08651 1.65491 7.00347C1.61702 7.02069 1.5828 7.05268 1.53391 7.03238C1.60969 6.88228 1.5168 6.67621 1.27969 6.62761C1.35999 6.71582 1.4058 6.83034 1.40863 6.94995C1.40863 7.30612 1.31024 7.36579 1.31024 7.61369C1.31024 7.71704 1.36341 7.829 1.46791 7.90527V7.90097C1.40008 7.91942 1.35547 7.95326 1.33041 8.00001C1.48869 8.04553 1.71847 8.0443 1.84191 7.9957C1.89755 7.98746 1.95068 7.96691 1.99749 7.93553C2.0443 7.90416 2.08362 7.86273 2.11263 7.81423C2.14251 7.74514 2.15793 7.67059 2.15793 7.59524C2.15793 7.51989 2.14251 7.44534 2.11263 7.37625C2.01852 7.17817 1.57486 6.23146 1.43674 5.93311C1.40633 5.87 1.39025 5.80087 1.38969 5.73073C1.38969 5.54864 1.5553 5.48467 1.64941 5.48467C1.76247 5.48467 1.87736 5.5714 1.87736 5.67844C1.87736 5.74734 1.84008 5.78855 1.78752 5.78855C1.6598 5.78855 1.66774 5.67905 1.6928 5.61077C1.61397 5.64645 1.56752 5.71043 1.58036 5.77809C1.53046 5.78544 1.48511 5.81134 1.45324 5.85068C1.48441 5.89005 1.5223 5.91958 1.58036 5.92081C1.55469 6.026 1.62436 6.07029 1.6928 6.09428C1.67141 6.018 1.65736 5.92942 1.78752 5.92942C1.88224 5.92942 1.9568 5.91281 2.00019 5.8513L2.01058 6.25914C2.01547 6.38155 1.8468 6.37848 1.73986 6.34157C1.78019 6.48305 1.8633 6.55933 2.05519 6.54026C2.02566 6.5518 2.00046 6.57237 1.98314 6.59907C1.96582 6.62577 1.95725 6.65727 1.95863 6.68913C1.95863 6.80416 2.05091 6.93211 2.11202 6.96963L2.14258 5.77133Z" fill="#FFCC4D"></path> <path d="M2.14257 4.84983C2.14257 5.15679 1.86879 5.31488 1.65368 5.31488C1.36402 5.31488 1.20941 5.14018 1.20941 4.91135C1.20941 4.78217 1.23324 4.70097 1.29252 4.57671L1.95679 3.1877C1.98089 3.12957 1.99135 3.06663 1.98735 3.00377C1.98735 2.87951 1.86696 2.7774 1.74168 2.77432C1.62679 2.77186 1.50213 2.88197 1.50213 3.00808C1.50213 3.16125 1.58035 3.22892 1.66163 3.22892C1.76124 3.22892 1.80096 3.1877 1.80096 3.11696C1.80096 3.06775 1.77713 3.04683 1.74352 3.04683C1.65796 3.04683 1.68179 3.16248 1.68179 3.16248C1.67043 3.16017 1.65971 3.15537 1.6504 3.14842C1.64109 3.14146 1.63342 3.13253 1.62794 3.12225C1.62245 3.11197 1.61929 3.10059 1.61867 3.08894C1.61805 3.07729 1.61999 3.06564 1.62435 3.05483C1.59218 3.0485 1.56309 3.03136 1.54185 3.00623C1.56415 2.98303 1.59292 2.96716 1.62435 2.96071C1.60479 2.89428 1.63168 2.86229 1.68913 2.84814C1.67919 2.87052 1.67641 2.89546 1.68118 2.9195C1.77224 2.89366 1.91157 2.93549 1.91157 3.09297C1.91157 3.24983 1.80341 3.38209 1.60052 3.34949C1.64879 3.37286 1.67324 3.42023 1.67752 3.47313C1.65272 3.4642 1.6268 3.45881 1.60052 3.45714C1.62374 3.49897 1.65674 3.53526 1.65552 3.61831C1.61763 3.60108 1.58341 3.56909 1.53452 3.58939C1.61029 3.73949 1.51741 3.94557 1.28029 3.99478C1.36059 3.90632 1.40639 3.79161 1.40924 3.67182C1.40924 3.31627 1.31085 3.25598 1.31085 3.00869C1.31085 2.90535 1.36402 2.79339 1.46852 2.71711V2.72142C1.43982 2.71533 1.41271 2.70326 1.38892 2.68599C1.36514 2.66872 1.3452 2.64664 1.33041 2.62115C1.48868 2.57625 1.71846 2.57686 1.84191 2.62607C1.89764 2.63426 1.95086 2.65485 1.99769 2.68635C2.04452 2.71785 2.08378 2.75946 2.11263 2.80816C2.14254 2.87724 2.15798 2.95179 2.15798 3.02715C2.15798 3.10251 2.14254 3.17706 2.11263 3.24614C2.01852 3.44422 1.57485 4.39093 1.43674 4.68866C1.40626 4.75175 1.39019 4.8209 1.38968 4.89105C1.38968 5.07375 1.55529 5.13711 1.64941 5.13711C1.76246 5.13711 1.87735 5.05037 1.87735 4.94272C1.87735 4.87444 1.84007 4.83261 1.78752 4.83261C1.65979 4.83261 1.66774 4.94149 1.69279 5.01039C1.61396 4.97471 1.56752 4.91073 1.58035 4.84307C1.53053 4.83549 1.48526 4.80964 1.45324 4.77048C1.48441 4.73111 1.52229 4.70097 1.58035 4.70035C1.55468 4.59578 1.62435 4.55087 1.69279 4.52626C1.67141 4.60316 1.65735 4.69235 1.78752 4.69235C1.88224 4.69235 1.95679 4.70835 2.00018 4.77048L2.01118 4.36079C2.01607 4.23838 1.84741 4.24207 1.74046 4.27836C1.78079 4.13688 1.86391 4.0606 2.05579 4.07967C2.02626 4.06813 2.00107 4.04756 1.98375 4.02086C1.96643 3.99415 1.95786 3.96266 1.95924 3.9308C1.95924 3.81577 2.05152 3.68782 2.11263 3.65029L2.14257 4.84983ZM2.14257 10.2287C2.14257 10.5356 1.86879 10.6931 1.65368 10.6931C1.36402 10.6931 1.20941 10.519 1.20941 10.2908C1.20792 10.1739 1.23656 10.0586 1.29252 9.95618L1.95679 8.56717C1.98089 8.50904 1.99135 8.4461 1.98735 8.38324C1.98735 8.25837 1.86696 8.15687 1.74168 8.15379C1.62679 8.15072 1.50213 8.26144 1.50213 8.38693C1.50213 8.53949 1.58035 8.60777 1.66163 8.60777C1.76124 8.60777 1.80096 8.56656 1.80096 8.49582C1.80096 8.44722 1.77713 8.4263 1.74352 8.4263C1.65796 8.4263 1.68179 8.54195 1.68179 8.54195C1.67049 8.53955 1.65983 8.53468 1.65058 8.52771C1.64133 8.52073 1.63371 8.5118 1.62824 8.50155C1.62277 8.4913 1.61959 8.47997 1.61892 8.46836C1.61824 8.45674 1.6201 8.44512 1.62435 8.4343C1.59211 8.42776 1.56303 8.41041 1.54185 8.38509C1.56401 8.36169 1.59283 8.34579 1.62435 8.33957C1.60479 8.27252 1.63107 8.24053 1.68852 8.22638C1.67858 8.24876 1.6758 8.2737 1.68057 8.29774C1.77163 8.2719 1.91096 8.31312 1.91096 8.47121C1.91096 8.62807 1.80279 8.75971 1.59991 8.72773C1.64818 8.75172 1.67263 8.79847 1.67691 8.85199C1.64024 8.83784 1.59991 8.83538 1.59991 8.83538C1.62313 8.87721 1.65613 8.91412 1.65491 8.99655C1.61702 8.97932 1.58279 8.94733 1.53391 8.96763C1.60968 9.11711 1.51679 9.32442 1.27968 9.3724C1.36008 9.28425 1.4059 9.1697 1.40863 9.05006C1.40863 8.69512 1.31024 8.63422 1.31024 8.38693C1.31024 8.28297 1.36341 8.17102 1.46791 8.09535V8.09904C1.40007 8.0812 1.35546 8.04737 1.33041 8.00001C1.48868 7.9551 1.71846 7.95572 1.84191 8.00493C1.89754 8.01317 1.95068 8.03372 1.99749 8.0651C2.0443 8.09647 2.08362 8.1379 2.11263 8.1864C2.1425 8.25549 2.15792 8.33003 2.15792 8.40539C2.15792 8.48074 2.1425 8.55529 2.11263 8.62438C2.01852 8.82246 1.57485 9.76917 1.43674 10.0675C1.40619 10.1306 1.3901 10.1997 1.38968 10.2699C1.38968 10.452 1.55529 10.5153 1.64941 10.5153C1.76246 10.5153 1.87735 10.4286 1.87735 10.321C1.87735 10.2539 1.84007 10.2121 1.78752 10.2121C1.65979 10.2121 1.66774 10.321 1.69279 10.3892C1.61396 10.3536 1.56752 10.289 1.58035 10.2219C1.53048 10.2149 1.48509 10.1892 1.45324 10.1499C1.46773 10.1292 1.48669 10.1121 1.50871 10.0999C1.53073 10.0876 1.55523 10.0805 1.58035 10.0792C1.55468 9.97463 1.62435 9.93096 1.69279 9.90635C1.67141 9.98324 1.65735 10.0718 1.78752 10.0718C1.88224 10.0718 1.95679 10.0878 2.00018 10.1506L2.01118 9.74087C2.01607 9.61908 1.84741 9.62215 1.74046 9.65844C1.78079 9.51758 1.86391 9.4413 2.05579 9.46037C2.02626 9.44883 2.00107 9.42826 1.98375 9.40156C1.96643 9.37485 1.95786 9.34336 1.95924 9.3115C1.95924 9.19647 2.05152 9.06913 2.11263 9.03099L2.14257 10.2287Z" fill="#FFCC4D"></path> <path d="M2.08206 10.2287C2.08206 10.5356 2.35584 10.6931 2.57095 10.6931C2.86062 10.6931 3.01523 10.519 3.01523 10.2908C3.01671 10.1739 2.98808 10.0586 2.93212 9.95617L2.26784 8.56717C2.24349 8.5091 2.23283 8.44615 2.23668 8.38324C2.23668 8.25836 2.35706 8.15686 2.48295 8.15379C2.59723 8.15071 2.72251 8.26144 2.72251 8.38693C2.72251 8.53949 2.64429 8.60777 2.56301 8.60777C2.4634 8.60777 2.42368 8.56655 2.42368 8.49581C2.42368 8.44721 2.44751 8.4263 2.48112 8.4263C2.56667 8.4263 2.54284 8.54195 2.54284 8.54195C2.55415 8.53954 2.5648 8.53468 2.57405 8.5277C2.5833 8.52072 2.59093 8.5118 2.5964 8.50155C2.60187 8.4913 2.60505 8.47997 2.60572 8.46835C2.60639 8.45674 2.60454 8.44512 2.60029 8.4343C2.63252 8.42775 2.6616 8.4104 2.68279 8.38508C2.66063 8.36168 2.6318 8.34578 2.60029 8.33956C2.62045 8.27251 2.59356 8.24052 2.53612 8.22638C2.54773 8.25221 2.54773 8.27559 2.54406 8.29773C2.45301 8.2719 2.31367 8.31311 2.31367 8.47121C2.31367 8.62807 2.42184 8.75971 2.62534 8.72772C2.57645 8.75171 2.55262 8.79846 2.54773 8.85198C2.5844 8.83783 2.62534 8.83537 2.62534 8.83537C2.60151 8.8772 2.56851 8.91411 2.56973 8.99654C2.60762 8.97932 2.64245 8.94733 2.69073 8.96763C2.61495 9.11711 2.70784 9.32442 2.94495 9.3724C2.86456 9.28425 2.81873 9.16969 2.81601 9.05006C2.81601 8.69512 2.91501 8.63422 2.91501 8.38693C2.91347 8.32925 2.89837 8.27276 2.87097 8.22208C2.84357 8.1714 2.80463 8.12797 2.75734 8.09535V8.09904C2.78614 8.09321 2.81338 8.08132 2.83729 8.06414C2.86119 8.04697 2.88122 8.0249 2.89606 7.99939C2.73779 7.95448 2.5074 7.9551 2.38456 8.00431C2.32893 8.01255 2.27579 8.0331 2.22898 8.06448C2.18217 8.09585 2.14285 8.13728 2.11384 8.18578C2.08397 8.25487 2.06855 8.32942 2.06855 8.40477C2.06855 8.48012 2.08397 8.55467 2.11384 8.62376C2.20795 8.82184 2.65162 9.76855 2.78973 10.0669C2.81906 10.1296 2.83679 10.1961 2.83679 10.2693C2.83679 10.4514 2.67117 10.5147 2.57706 10.5147C2.46401 10.5147 2.34912 10.428 2.34912 10.3203C2.34912 10.2533 2.3864 10.2115 2.43895 10.2115C2.56667 10.2115 2.55873 10.3203 2.53306 10.3886C2.6119 10.3529 2.65834 10.2884 2.64551 10.2213C2.69545 10.2145 2.74093 10.1888 2.77262 10.1493C2.75813 10.1286 2.73916 10.1115 2.71715 10.0992C2.69513 10.087 2.67063 10.0799 2.64551 10.0786C2.67117 9.97401 2.60151 9.93034 2.53306 9.90573C2.55445 9.98262 2.56851 10.0712 2.43895 10.0712C2.34423 10.0712 2.26967 10.0872 2.22629 10.1499C2.22323 10.0675 2.21529 9.74026 2.21529 9.74026C2.2104 9.61846 2.37845 9.62153 2.4854 9.65783C2.44445 9.51696 2.36195 9.44068 2.16945 9.45975C2.19898 9.4482 2.22418 9.42764 2.2415 9.40094C2.25882 9.37423 2.26739 9.34274 2.26601 9.31088C2.26601 9.19585 2.17312 9.06851 2.11262 9.03037L2.08206 10.2287ZM2.11262 1.52803C2.11262 1.52803 2.25745 1.40562 2.30634 1.46651C2.38517 1.56555 2.06373 2.05706 2.06373 2.23053C2.06373 2.51473 2.25256 2.59162 2.48479 2.63222C2.64123 2.6599 2.89545 2.62115 2.89545 2.62115C2.84656 2.55656 2.81601 2.53749 2.73534 2.53257C2.79092 2.50346 2.8373 2.45929 2.86927 2.40505C2.90123 2.35081 2.9175 2.28866 2.91623 2.22561C2.91623 1.98078 2.81601 1.87989 2.81601 1.60431C2.81601 1.45114 2.94067 1.25613 2.94067 1.25613C2.72067 1.27889 2.61067 1.48374 2.67301 1.64798C2.65626 1.6511 2.63902 1.6501 2.62274 1.64507C2.60646 1.64003 2.59163 1.63111 2.57951 1.61907C2.56362 1.66459 2.58929 1.7175 2.6229 1.76302C2.5954 1.77778 2.57523 1.76855 2.53184 1.75933C2.53612 1.80669 2.56362 1.8559 2.63206 1.90265C2.43345 1.85098 2.31184 1.99001 2.31184 2.1358C2.31184 2.24591 2.38823 2.32403 2.4634 2.32403C2.48784 2.32403 2.52329 2.31419 2.54345 2.29881C2.55751 2.32895 2.55018 2.36955 2.53551 2.39969C2.59051 2.38555 2.62473 2.35233 2.60029 2.28405C2.63776 2.28251 2.67311 2.26615 2.69867 2.23853C2.68685 2.22372 2.67172 2.21193 2.65452 2.20413C2.63732 2.19633 2.61852 2.19273 2.59968 2.19362C2.63023 2.12964 2.59601 2.09397 2.54651 2.06567C2.54651 2.06567 2.57829 2.19362 2.49701 2.19362C2.46034 2.19362 2.42734 2.18132 2.42734 2.1278C2.42734 2.08105 2.46829 2.01584 2.5624 2.02015C2.65651 2.02384 2.7329 2.08535 2.7329 2.2373C2.7329 2.37693 2.62106 2.44583 2.47379 2.45075C2.34117 2.45444 2.24095 2.38185 2.24095 2.24406C2.24095 2.06013 2.50495 1.64183 2.50495 1.47759C2.50495 1.35456 2.39556 1.28566 2.28801 1.28566C2.14867 1.28566 2.03134 1.42468 2.03134 1.42468L2.11262 1.52803Z" fill="#FFCC4D"></path> <path d="M2.11263 1.52803C2.11263 1.52803 1.9678 1.40562 1.91891 1.46651C1.83947 1.56617 2.16152 2.05767 2.16152 2.23114C2.16152 2.51534 1.97269 2.59224 1.74047 2.63284C1.58402 2.6599 1.33041 2.62115 1.33041 2.62115C1.37808 2.55656 1.40924 2.53749 1.48991 2.53257C1.43417 2.5036 1.38762 2.45948 1.35554 2.40522C1.32346 2.35096 1.30713 2.28874 1.30841 2.22561C1.30841 1.98078 1.40863 1.87989 1.40863 1.60431C1.40863 1.45114 1.28397 1.25613 1.28397 1.25613C1.50397 1.27889 1.61397 1.48374 1.55163 1.64798C1.56847 1.651 1.58578 1.64995 1.60214 1.64492C1.6185 1.6399 1.63345 1.63104 1.64574 1.61907C1.66163 1.66459 1.63658 1.7175 1.60235 1.76302C1.62924 1.77778 1.64941 1.76855 1.69341 1.75933C1.68913 1.80669 1.66102 1.8559 1.59319 1.90265C1.79119 1.85098 1.9128 1.99001 1.9128 2.1358C1.9128 2.24591 1.83641 2.32403 1.76124 2.32403C1.73273 2.32341 1.70497 2.31466 1.68119 2.29881C1.66774 2.32957 1.67508 2.36955 1.68913 2.39969C1.63474 2.38555 1.60052 2.35233 1.62497 2.28466C1.60639 2.284 1.58813 2.27963 1.57124 2.27182C1.55435 2.26401 1.53917 2.2529 1.52658 2.23914C1.53821 2.22423 1.5532 2.21233 1.57031 2.20441C1.58742 2.1965 1.60615 2.1928 1.62497 2.19362C1.59441 2.12964 1.62863 2.09397 1.67813 2.06567C1.67813 2.06567 1.64635 2.19362 1.72763 2.19362C1.7643 2.19362 1.7973 2.18132 1.7973 2.1278C1.7973 2.08105 1.75635 2.01584 1.66224 2.02015C1.56752 2.02384 1.49113 2.08535 1.49113 2.23668C1.49113 2.37632 1.60297 2.44521 1.75024 2.45014C1.88347 2.45383 1.98369 2.38186 1.98369 2.24345C1.98369 2.05952 1.71969 1.64122 1.71969 1.47697C1.71969 1.35394 1.82908 1.28505 1.93663 1.28505C2.07597 1.28505 2.1933 1.42407 2.1933 1.42407L2.11263 1.52803ZM2.08208 4.84983C2.08208 5.15679 2.35585 5.31488 2.57097 5.31488C2.86063 5.31488 3.01524 5.14018 3.01524 4.91134C3.01524 4.78216 2.99141 4.70096 2.93213 4.5767L2.26785 3.1877C2.24394 3.12973 2.23348 3.06703 2.2373 3.00438C2.2373 2.88012 2.35769 2.77801 2.48358 2.77493C2.59785 2.77247 2.72313 2.88259 2.72313 3.00869C2.72313 3.16186 2.64491 3.22953 2.56363 3.22953C2.46402 3.22953 2.4243 3.18831 2.4243 3.11757C2.4243 3.06836 2.44813 3.04745 2.48174 3.04745C2.5673 3.04745 2.54347 3.16309 2.54347 3.16309C2.55477 3.16069 2.56543 3.15582 2.57468 3.14885C2.58393 3.14187 2.59155 3.13294 2.59702 3.12269C2.60249 3.11244 2.60567 3.10112 2.60634 3.0895C2.60702 3.07789 2.60516 3.06626 2.60091 3.05544C2.63286 3.04859 2.66165 3.03129 2.6828 3.00623C2.66033 2.98291 2.63134 2.96703 2.59969 2.96071C2.61986 2.89427 2.59297 2.86229 2.53552 2.84814C2.54713 2.87397 2.54713 2.89735 2.54347 2.91949C2.45241 2.89366 2.31308 2.93487 2.31308 3.09297C2.31308 3.24983 2.42124 3.38209 2.62474 3.34948C2.57585 3.37286 2.55202 3.42022 2.54713 3.47313C2.57213 3.46417 2.59826 3.45878 2.62474 3.45713C2.60091 3.49896 2.56791 3.53526 2.56913 3.6183C2.60702 3.60108 2.64185 3.56909 2.69013 3.58939C2.61435 3.73949 2.70724 3.94556 2.94435 3.99477C2.86406 3.90631 2.81826 3.79161 2.81541 3.67182C2.81541 3.31626 2.91441 3.25598 2.91441 3.00869C2.91272 2.95104 2.89757 2.8946 2.87018 2.84394C2.84278 2.79329 2.80392 2.74984 2.75674 2.71711V2.72142C2.78548 2.71523 2.81264 2.70312 2.83651 2.68587C2.86038 2.66861 2.88045 2.64658 2.89547 2.62115C2.73658 2.57686 2.50619 2.57747 2.38274 2.62668C2.32711 2.63468 2.27396 2.65513 2.22721 2.68654C2.18047 2.71794 2.14131 2.7595 2.11263 2.80815C2.08272 2.87724 2.06728 2.95179 2.06728 3.02715C2.06728 3.10251 2.08272 3.17706 2.11263 3.24614C2.20674 3.44422 2.65041 4.39093 2.78852 4.68866C2.81858 4.7519 2.83463 4.82095 2.83558 4.89104C2.83558 5.07374 2.66997 5.1371 2.57586 5.1371C2.4628 5.1371 2.34791 5.05037 2.34791 4.94272C2.34791 4.87443 2.38519 4.8326 2.43774 4.8326C2.56547 4.8326 2.55752 4.94149 2.53185 5.01038C2.61069 4.9747 2.65713 4.91073 2.6443 4.84306C2.69422 4.83577 2.73959 4.80986 2.77141 4.77047C2.74024 4.73111 2.70236 4.70096 2.6443 4.70035C2.66997 4.59577 2.6003 4.55087 2.53185 4.52626C2.55324 4.60315 2.5673 4.69235 2.43774 4.69235C2.34302 4.69235 2.26847 4.70834 2.22508 4.77047C2.22202 4.68805 2.21408 4.36079 2.21408 4.36079C2.20919 4.23837 2.37724 4.24206 2.48419 4.27836C2.44447 4.1381 2.36197 4.06182 2.16947 4.08089C2.199 4.06935 2.22419 4.04878 2.24151 4.02208C2.25883 3.99538 2.2674 3.96389 2.26602 3.93203C2.26602 3.817 2.17313 3.68904 2.11263 3.65152L2.08208 4.84983Z" fill="#FFCC4D"></path></g> <defs><clipPath id="clip0_1485_1151"><rect width="22" height="16" fill="white"></rect></clipPath></defs></svg>