<svg width="32" height="32" viewBox="0 0 32 32" fill="none" xmlns="http://www.w3.org/2000/svg">
<path d="M8 0C6.9 0 6 0.9 6 2V30C6 31.1 6.9 32 8 32H28C29.1 32 30 31.1 30 30V8L22 0H8Z" fill="#E2E5E7"/>
<path d="M24 8H30L22 0V6C22 7.1 22.9 8 24 8Z" fill="#B0B7BD"/>
<path d="M30 14L24 8H30V14Z" fill="#CAD1D8"/>
<path d="M26 26C26 26.55 25.55 27 25 27H3C2.45 27 2 26.55 2 26V16C2 15.45 2.45 15 3 15H25C25.55 15 26 15.45 26 16V26Z" fill="#F15642"/>
<path d="M6.35938 18.947C6.35938 18.683 6.56737 18.395 6.90237 18.395H8.74937C9.78937 18.395 10.7254 19.091 10.7254 20.425C10.7254 21.689 9.78937 22.393 8.74937 22.393H7.41437V23.449C7.41437 23.801 7.19037 24 6.90237 24C6.63837 24 6.35938 23.801 6.35938 23.449V18.947ZM7.41437 19.402V21.394H8.74937C9.28537 21.394 9.70937 20.921 9.70937 20.425C9.70937 19.866 9.28537 19.402 8.74937 19.402H7.41437ZM12.2914 24C12.0274 24 11.7394 23.856 11.7394 23.505V18.963C11.7394 18.676 12.0274 18.467 12.2914 18.467H14.1224C17.7764 18.467 17.6964 24 14.1944 24H12.2914ZM12.7954 19.443V23.025H14.1224C16.2814 23.025 16.3774 19.443 14.1224 19.443H12.7954ZM18.9924 19.507V20.778H21.0314C21.3194 20.778 21.6074 21.066 21.6074 21.345C21.6074 21.609 21.3194 21.825 21.0314 21.825H18.9924V23.504C18.9924 23.784 18.7934 23.999 18.5134 23.999C18.1614 23.999 17.9464 23.784 17.9464 23.504V18.962C17.9464 18.675 18.1624 18.466 18.5134 18.466H21.3204C21.6724 18.466 21.8804 18.675 21.8804 18.962C21.8804 19.218 21.6724 19.506 21.3204 19.506H18.9924V19.507Z" fill="white"/>
<path d="M25 27H6V28H25C25.55 28 26 27.55 26 27V26C26 26.55 25.55 27 25 27Z" fill="#CAD1D8"/>
</svg>
