<svg width="55" height="36" viewBox="0 0 55 36" fill="none" xmlns="http://www.w3.org/2000/svg">
<path d="M0 0.4375H19.9375V14.0625C19.9375 16.9375 19.5208 19.6667 18.6875 22.25C17.8542 24.7917 16.6042 27.0208 14.9375 28.9375C13.2708 30.8542 11.1875 32.3958 8.6875 33.5625C6.22917 34.6875 3.33333 35.25 0 35.25V28C8.45833 28 12.6875 23.3542 12.6875 14.0625V12.125H0V0.4375ZM34.9375 0.4375H54.8125V14.0625C54.8125 16.9375 54.3958 19.6667 53.5625 22.25C52.7708 24.7917 51.5417 27.0208 49.875 28.9375C48.2083 30.8542 46.125 32.3958 43.625 33.5625C41.1667 34.6875 38.2708 35.25 34.9375 35.25V28C43.3125 28 47.5 23.3542 47.5 14.0625V12.125H34.9375V0.4375Z" fill="#001B45"/>
</svg>
