<svg width="22" height="16" viewBox="0 0 22 16" fill="none" xmlns="http://www.w3.org/2000/svg"><g clip-path="url(#clip0_1485_1146)"><path d="M22 13.5363C22 14.1889 21.7425 14.8148 21.284 15.2762C20.8256 15.7377 20.2039 15.9969 19.5556 15.9969H2.44444C1.79614 15.9969 1.17438 15.7377 0.715961 15.2762C0.257539 14.8148 0 14.1889 0 13.5363V11.0757H22V13.5363Z" fill="#CE2028"></path> <path d="M0 4.92426H22V11.0757H0V4.92426Z" fill="#22408C"></path> <path d="M19.5556 0.00308228H2.44444C1.79614 0.00308228 1.17438 0.262322 0.715961 0.723773C0.257539 1.18522 0 1.81108 0 2.46367L0 4.92427H22V2.46367C22 1.81108 21.7425 1.18522 21.284 0.723773C20.8256 0.262322 20.2039 0.00308228 19.5556 0.00308228Z" fill="#EEEEEE"></path></g> <defs><clipPath id="clip0_1485_1146"><rect width="22" height="16" fill="white"></rect></clipPath></defs></svg>