<svg width="22" height="16" viewBox="0 0 22 16" fill="none" xmlns="http://www.w3.org/2000/svg"><path d="M20.975 2.88115C20.7125 1.9624 20.0563 1.30615 19.1375 1.04365C17.5625 0.649903 10.8687 0.649902 10.8687 0.649902C10.8687 0.649902 4.30626 0.649903 2.60001 1.04365C1.68126 1.30615 1.025 1.9624 0.762496 2.88115C0.499996 4.5874 0.5 7.9999 0.5 7.9999C0.5 7.9999 0.500004 11.4124 0.893754 13.1187C1.15625 14.0374 1.8125 14.6937 2.73125 14.9562C4.30625 15.3499 11 15.3499 11 15.3499C11 15.3499 17.5625 15.3499 19.2687 14.9562C20.1875 14.6937 20.8438 14.0374 21.1063 13.1187C21.5 11.4124 21.5 7.9999 21.5 7.9999C21.5 7.9999 21.5 4.5874 20.975 2.88115ZM8.89999 11.1499V4.8499L14.4125 7.9999L8.89999 11.1499Z" fill="white"></path></svg>