<svg width="43" height="42" fill="none" xmlns="http://www.w3.org/2000/svg"><path d="M19.75 35.788c-3.442-.438-6.344-1.955-8.706-4.55C8.68 28.642 7.5 25.579 7.5 22.05c0-1.925.358-3.712 1.073-5.36a13.258 13.258 0 013.04-4.353L21.5 2.626l9.887 9.713a14.449 14.449 0 012.605 3.543 13.565 13.565 0 011.377 4.244h-3.544a10.236 10.236 0 00-1.029-2.823 9.868 9.868 0 00-1.858-2.427L21.5 7.525l-7.438 7.35c-1.02.963-1.786 2.049-2.295 3.259-.511 1.21-.767 2.516-.767 3.916 0 2.537.839 4.769 2.517 6.694 1.676 1.925 3.754 3.091 6.233 3.5v3.544zm4.025-8.357l-1.05-2.406a13.763 13.763 0 012.383-1.006 8.318 8.318 0 014.507-.154c.657.16 1.291.358 1.904.591.525.234 1.057.438 1.598.613.539.175 1.1.262 1.683.262a5.71 5.71 0 001.969-.35c.641-.233 1.269-.51 1.881-.831l1.05 2.406c-.758.409-1.553.744-2.384 1.006a8.318 8.318 0 01-2.516.394c-.67 0-1.334-.08-1.99-.241a15.904 15.904 0 01-1.904-.59 16.312 16.312 0 00-1.598-.613 5.417 5.417 0 00-1.683-.262 5.72 5.72 0 00-1.969.35 15.37 15.37 0 00-1.881.831zm0 5.25l-1.05-2.406a13.763 13.763 0 012.383-1.006 8.318 8.318 0 014.507-.154c.657.16 1.291.358 1.904.591a16.31 16.31 0 001.598.613 5.42 5.42 0 001.683.262 5.71 5.71 0 001.969-.35c.641-.233 1.269-.51 1.881-.831l1.05 2.406c-.758.409-1.553.744-2.384 1.006a8.318 8.318 0 01-2.516.394c-.67 0-1.334-.08-1.99-.241a15.904 15.904 0 01-1.904-.59 16.312 16.312 0 00-1.598-.613 5.417 5.417 0 00-1.683-.262 5.72 5.72 0 00-1.969.35 15.37 15.37 0 00-1.881.831zm0 5.25l-1.05-2.406a13.763 13.763 0 012.383-1.006 8.318 8.318 0 014.507-.154c.657.16 1.291.358 1.904.591.525.234 1.057.438 1.598.613.539.175 1.1.262 1.683.262a5.71 5.71 0 001.969-.35c.641-.233 1.269-.51 1.881-.831l1.05 2.406c-.758.409-1.553.744-2.384 1.007a8.318 8.318 0 01-2.516.393c-.67 0-1.334-.08-1.99-.241a15.904 15.904 0 01-1.904-.59 16.312 16.312 0 00-1.598-.612 5.417 5.417 0 00-1.683-.263 5.72 5.72 0 00-1.969.35 15.37 15.37 0 00-1.881.831z" fill="#fff"/></svg>