<svg width="42" height="42" fill="none" xmlns="http://www.w3.org/2000/svg"><path d="M10.502 33.25h21l-2.493-17.5H12.996l-2.494 17.5zm10.5-21c.496 0 .912-.167 1.248-.502.335-.336.502-.752.502-1.248s-.167-.912-.502-1.248a1.698 1.698 0 00-1.248-.502c-.495 0-.91.167-1.246.502a1.695 1.695 0 00-.504 1.248c0 .496.168.912.504 1.248.335.335.75.502 1.246.502zm4.944 0h3.063a3.27 3.27 0 012.275.875 3.665 3.665 0 011.18 2.144l2.495 17.5c.145 1.05-.124 1.976-.809 2.777-.686.803-1.568 1.204-2.648 1.204h-21c-1.079 0-1.96-.401-2.646-1.204-.686-.801-.956-1.727-.81-2.777l2.494-17.5c.146-.846.54-1.56 1.181-2.144a3.27 3.27 0 012.275-.875h3.063c-.088-.292-.16-.576-.22-.854a4.342 4.342 0 01-.087-.896c0-1.458.51-2.698 1.532-3.719 1.02-1.02 2.26-1.531 3.718-1.531 1.459 0 2.698.51 3.72 1.531 1.02 1.021 1.53 2.26 1.53 3.719 0 .32-.029.62-.087.896a10.13 10.13 0 01-.219.854z" fill="#fff"/></svg>