<svg width="43" height="42" fill="none" xmlns="http://www.w3.org/2000/svg"><g clip-path="url(#clip0_1718_5083)"><path d="M21.5 3.5c-9.328 7.963-14 14.84-14 20.65 0 8.715 6.65 14.35 14 14.35s14-5.635 14-14.35c0-5.81-4.672-12.687-14-20.65zm0 31.5C15.637 35 11 30.503 11 24.15c0-4.095 3.412-9.52 10.5-15.995C28.587 14.63 32 20.038 32 24.15 32 30.503 27.363 35 21.5 35zm-7.297-10.5c.647 0 1.172.455 1.295 1.085.717 3.885 3.99 5.215 6.37 5.023a1.316 1.316 0 011.382 1.312c0 .7-.56 1.278-1.26 1.313-3.727.227-8.085-1.908-9.082-7.21-.14-.788.49-1.523 1.295-1.523z" fill="#fff"/></g><defs><clipPath id="clip0_1718_5083"><path fill="#fff" transform="translate(.5)" d="M0 0h42v42H0z"/></clipPath></defs></svg>