<svg width="43" height="42" fill="none" xmlns="http://www.w3.org/2000/svg"><g clip-path="url(#clip0_1718_5094)"><path d="M17.182 6.496h8.636c1.083 0 2.584 1.058 1.993 2.288l-4.084 8.365c.024 0-.27.419-.665.222-.984-.418-2.116-.443-3.1-.025 0 .05-.492.148-.664-.246l-4.11-8.316c-.614-1.206.887-2.288 1.994-2.288zM21.488 0C9.898 0 .5 9.399.5 20.988.5 32.6 9.899 42 21.488 42 33.1 42 42.5 32.601 42.5 20.988 42.5 9.398 33.101 0 21.488 0zm0 2.362c10.284 0 18.625 8.341 18.625 18.626 0 10.284-8.34 18.625-18.625 18.625S2.862 31.273 2.862 20.988 11.203 2.362 21.488 2.362zm0 16.042a2.589 2.589 0 012.608 2.584 2.594 2.594 0 01-2.608 2.608 2.589 2.589 0 01-2.584-2.608 2.583 2.583 0 012.584-2.584zM11.105 31.986l-4.306-7.48c-.566-.935-.394-2.78.96-2.879l9.128-.615c.098-.024.197-.024.27-.024.197.049.37.197.394.393.369 1.674.418 1.6 1.624 2.805a.575.575 0 01.123.517c-.05.074-.098.172-.148.246l-5.068 7.628c-.738 1.107-2.412.369-2.977-.591zm20.052.763c-.689.467-1.697.615-2.239-.172l-5.142-7.628a.962.962 0 01-.123-.221.54.54 0 01.197-.566c.836-.542 1.451-1.698 1.574-2.682-.049-.222.296-.468.542-.419l9.276.566c.935.074 1.304 1.01 1.255 1.846-.025.615-3.79 8.242-5.34 9.276z" fill="#fff"/></g><defs><clipPath id="clip0_1718_5094"><path fill="#fff" transform="translate(.5)" d="M0 0h42v42H0z"/></clipPath></defs></svg>