<svg width="42" height="43" fill="none" xmlns="http://www.w3.org/2000/svg"><path d="M21 39c-2.42 0-4.484-.853-6.19-2.558-1.707-1.707-2.56-3.77-2.56-6.192V14.5c-.963 0-1.786-.343-2.471-1.029-.686-.685-1.029-1.508-1.029-2.47V7.5c0-.963.343-1.788 1.029-2.474A3.369 3.369 0 0112.25 4h17.5c.962 0 1.787.343 2.473 1.027.685.686 1.027 1.51 1.027 2.473V11c0 .963-.342 1.786-1.027 2.471-.686.686-1.51 1.03-2.473 1.03v15.75c0 2.42-.853 4.484-2.558 6.19-1.707 1.706-3.771 2.56-6.192 2.56zm-8.75-28h17.5V7.5h-17.5V11zM21 35.5a5.088 5.088 0 003.063-.983c.904-.657 1.53-1.496 1.88-2.517H21v-3.5h5.25v-1.75H21v-3.5h5.25V21.5H21V18h5.25v-3.5h-10.5v15.75c0 1.459.51 2.698 1.531 3.719 1.021 1.02 2.26 1.531 3.719 1.531z" fill="#fff"/></svg>