<svg width="43" height="42" fill="none" xmlns="http://www.w3.org/2000/svg"><g clip-path="url(#clip0_1718_5075)"><path d="M28.5 10.5l-.77.963c-.735.91-1.715 1.312-2.695 1.312-1.785 0-3.535-1.365-3.535-3.5V3.5s-14 7-14 19.25c0 7.735 6.265 14 14 14s14-6.265 14-14c0-5.18-2.818-9.835-7-12.25zm-7 22.75c-1.925 0-3.5-1.522-3.5-3.395 0-.892.35-1.732 1.015-2.38l2.485-2.45 2.503 2.45c.647.648.997 1.488.997 2.38 0 1.873-1.575 3.395-3.5 3.395zm6.93-2.625c.07-.63.385-3.307-1.977-5.635L21.5 20.125l-4.953 4.865c-2.38 2.345-2.047 5.04-1.977 5.635A10.469 10.469 0 0111 22.75c0-5.53 3.727-9.887 7.052-12.687.403 3.482 3.378 6.212 6.983 6.212a6.842 6.842 0 003.815-1.155A10.806 10.806 0 0132 22.75a10.47 10.47 0 01-3.57 7.875z" fill="#fff"/></g><defs><clipPath id="clip0_1718_5075"><path fill="#fff" transform="translate(.5)" d="M0 0h42v42H0z"/></clipPath></defs></svg>