<svg width="42" height="43" fill="none" xmlns="http://www.w3.org/2000/svg"><path d="M9.45 34.8a14.51 14.51 0 01-3.083-4.55 13.314 13.314 0 01-1.117-5.337c0-1.838.35-3.654 1.05-5.448.7-1.793 1.837-3.477 3.413-5.053 1.02-1.02 2.282-1.895 3.785-2.625 1.501-.729 3.28-1.305 5.336-1.729 2.056-.422 4.405-.677 7.045-.764 2.639-.088 5.592.014 8.858.306.234 3.092.307 5.935.22 8.531-.088 2.596-.33 4.936-.724 7.021-.393 2.086-.946 3.91-1.66 5.469-.715 1.561-1.598 2.866-2.648 3.917-1.546 1.545-3.186 2.675-4.921 3.39A13.84 13.84 0 0119.687 39a14.5 14.5 0 01-5.556-1.115c-1.808-.744-3.369-1.773-4.681-3.085zm4.9-.7a9.706 9.706 0 002.604 1.071c.889.22 1.8.329 2.733.329 1.342 0 2.67-.27 3.982-.809 1.312-.54 2.566-1.408 3.762-2.604.525-.525 1.057-1.26 1.596-2.208.54-.949 1.008-2.189 1.402-3.72.393-1.531.692-3.383.896-5.555.204-2.174.233-4.762.088-7.766a99.53 99.53 0 00-4.834-.067 38.924 38.924 0 00-5.36.416c-1.78.263-3.471.686-5.075 1.27-1.604.582-2.917 1.385-3.938 2.405-1.312 1.313-2.216 2.61-2.712 3.894-.496 1.284-.744 2.523-.744 3.719 0 1.72.328 3.23.983 4.527.657 1.299 1.234 2.21 1.73 2.736 1.225-2.334 2.843-4.573 4.856-6.717a25.476 25.476 0 017.044-5.271 31.94 31.94 0 00-5.49 6.233c-1.561 2.32-2.736 5.025-3.523 8.117z" fill="#fff"/></svg>