<svg width="22" height="22" fill="none" xmlns="http://www.w3.org/2000/svg"><path d="M11 .5C5.204.5.5 5.204.5 11S5.204 21.5 11 21.5c5.775 0 10.5-4.704 10.5-10.5S16.775.5 11 .5zm6.93 4.83c1.26 1.533 1.995 3.465 2.037 5.586-.294-.063-3.255-.651-6.237-.294-.063-.147-.126-.315-.189-.462a24.492 24.492 0 00-.588-1.302c3.276-1.323 4.788-3.276 4.977-3.528zM11 2.054c2.268 0 4.368.861 5.943 2.247-.168.231-1.512 2.037-4.704 3.234-1.47-2.709-3.108-4.914-3.339-5.25a9.75 9.75 0 012.1-.231zm-3.822.84a58.24 58.24 0 013.318 5.187C6.296 9.194 2.6 9.173 2.201 9.173a9.075 9.075 0 014.977-6.279zm-5.145 8.127v-.273c.378.021 4.746.063 9.219-1.281.252.504.504 1.008.735 1.533-.105.042-.231.063-.357.105-4.62 1.491-7.077 5.565-7.287 5.901a8.866 8.866 0 01-2.31-5.985zM11 19.967a8.942 8.942 0 01-5.502-1.89c.168-.336 1.974-3.843 7.035-5.607.021-.021.042-.021.063-.021 1.26 3.276 1.785 6.006 1.911 6.804a8.87 8.87 0 01-3.507.714zm4.998-1.533c-.084-.546-.567-3.171-1.743-6.384 2.814-.441 5.271.294 5.586.378a8.91 8.91 0 01-3.843 6.006z" fill="#fff"/></svg>