<svg width="22" height="16" fill="none" xmlns="http://www.w3.org/2000/svg"><g clip-path="url(#clip0_1485_1168)"><path d="M20.352-.002H1.648C.738-.002 0 .817 0 1.828v12.345c0 1.01.738 1.83 1.648 1.83h18.704c.91 0 1.648-.82 1.648-1.83V1.827c0-1.01-.738-1.83-1.648-1.83z" fill="#41479B"/><path d="M21.977 1.525c-.13-.866-.808-1.527-1.625-1.527h-.428L12.897 5.11V-.002H9.103V5.11L2.076-.002h-.428C.83-.002.153.658.023 1.525l6.006 4.37H0v4.21h6.029l-6.006 4.37c.13.866.807 1.527 1.625 1.527h.428l7.027-5.112v5.112h3.794V10.89l7.027 5.112h.428c.817 0 1.495-.66 1.625-1.527l-6.006-4.37H22v-4.21h-6.029l6.006-4.37z" fill="#F5F5F5"/><path d="M12.138-.002H9.862v6.738H0v2.528h9.862v6.738h2.276V9.264H22V6.736h-9.862V-.002z" fill="#FF4B55"/><path d="M1.065 15.884l8.018-5.778H7.689L.396 15.362c.179.231.408.413.67.522zm13.819-5.778H13.49l7.765 5.596a1.78 1.78 0 00.528-.623l-6.9-4.973zM.174 1.01l6.777 4.884h1.394L.665.36C.459.53.29.753.174 1.01zM14.29 5.894L21.596.628c-.18-.23-.411-.41-.674-.518l-8.026 5.784h1.394z" fill="#FF4B55"/></g><defs><clipPath id="clip0_1485_1168"><path fill="#fff" d="M0 0h22v16H0z"/></clipPath></defs></svg>