<svg width="64" height="64" fill="none" xmlns="http://www.w3.org/2000/svg"><g clip-path="url(#clip0_951_4554)" fill="#fff"><path d="M35.126 51.438c-1.633 0-3.172-.263-4.616-.788a14.38 14.38 0 01-3.959-2.188l-2.45 2.45c-.35.35-.758.526-1.225.526-.467 0-.875-.175-1.225-.526-.35-.35-.525-.758-.525-1.224 0-.467.175-.876.525-1.226l2.45-2.45a14.376 14.376 0 01-2.188-3.959c-.524-1.444-.787-2.982-.787-4.615 0-4.026 1.393-7.365 4.178-10.02 2.786-2.653 6.06-3.98 9.822-3.98h10.5c.963 0 1.786.342 2.472 1.028.685.685 1.028 1.509 1.028 2.471v10.5c0 1.809-.343 3.559-1.028 5.25-.686 1.692-1.714 3.238-3.084 4.638-1.4 1.37-2.946 2.399-4.638 3.084a13.856 13.856 0 01-5.25 1.029zm.525-16.976l-7.831 7.832c-.35.35-.518.758-.503 1.225.014.466.182.875.503 1.225.35.35.758.532 1.225.547.466.014.875-.153 1.225-.503l7.831-7.875c.35-.35.525-.759.525-1.225 0-.467-.175-.876-.525-1.226-.35-.35-.758-.525-1.225-.525-.467 0-.875.175-1.225.526zm-15.4-5.337c-.12 0-.232-.008-.336-.025a1.442 1.442 0 01-.287-.075c-1.357-.51-2.467-1.421-3.33-2.731A7.702 7.702 0 0115 21.963v-3.148c0-.278.08-.528.238-.75.159-.222.363-.383.615-.483l3.938-1.499A1.34 1.34 0 0120.25 16c.153 0 .306.028.46.083l3.937 1.5c.251.1.457.26.615.482.159.222.238.472.238.75v3.148a7.7 7.7 0 01-1.296 4.33c-.864 1.31-1.974 2.221-3.33 2.732a1.44 1.44 0 01-.288.075 2.092 2.092 0 01-.336.025z"/></g><defs><clipPath id="clip0_951_4554"><path fill="#fff" d="M0 0h64v64H0z"/></clipPath></defs></svg>