<svg width="64" height="64" fill="none" xmlns="http://www.w3.org/2000/svg"><g clip-path="url(#clip0_951_4581)"><path d="M39.063 40.415v-4.9l-3.325-6.08a3.453 3.453 0 00-1.4 1.268 3.372 3.372 0 00-.525 1.837v13.082c0 .32.037.62.11.897.073.277.182.546.328.809l2.056 3.587h13.694l-1.662-20.737a3.306 3.306 0 00-.263-1.072 4.15 4.15 0 00-.569-.94l-10.15-11.594c-.35-.409-.802-.598-1.356-.57-.554.03-1.02.263-1.4.7a4.893 4.893 0 00-.7 2.538c0 .905.219 1.765.656 2.582l7.131 12.993v5.6h-2.625zm-15.75 0v-5.6l7.132-12.993a5.035 5.035 0 00.612-2.582 5.492 5.492 0 00-.743-2.58 1.747 1.747 0 00-1.335-.635 1.618 1.618 0 00-1.334.59l-10.15 11.55a4.15 4.15 0 00-.569.941 3.3 3.3 0 00-.262 1.072L15 50.915h13.694l2.056-3.587c.146-.263.255-.532.328-.81.073-.276.11-.575.11-.896V32.54c0-.67-.175-1.276-.526-1.815a3.83 3.83 0 00-1.4-1.29l-3.325 6.08v4.9h-2.624z" fill="#fff"/></g><defs><clipPath id="clip0_951_4581"><path fill="#fff" d="M0 0h64v64H0z"/></clipPath></defs></svg>