<svg width="64" height="64" fill="none" xmlns="http://www.w3.org/2000/svg"><g clip-path="url(#clip0_951_4614)" fill="#fff"><path d="M41.501 32c.595 0 1.172.07 1.75.157v-8.434L30.126 18l-13.125 5.723v8.592c0 7.945 5.6 15.383 13.125 17.185a16.04 16.04 0 002.8-.962 10.462 10.462 0 01-1.925-6.038c0-5.792 4.707-10.5 10.5-10.5z"/><path d="M41.501 35.5c-3.867 0-7 3.133-7 7s3.133 7 7 7 7-3.133 7-7-3.133-7-7-7zm0 2.415c1.085 0 1.96.892 1.96 1.96a1.98 1.98 0 01-1.96 1.96 1.98 1.98 0 01-1.96-1.96c0-1.068.875-1.96 1.96-1.96zm0 9.398a4.768 4.768 0 01-3.92-2.048c.087-1.26 2.642-1.89 3.92-1.89s3.833.63 3.92 1.89a4.768 4.768 0 01-3.92 2.047z"/></g><defs><clipPath id="clip0_951_4614"><path fill="#fff" d="M0 0h64v64H0z"/></clipPath></defs></svg>