<svg width="110" height="13" fill="none" xmlns="http://www.w3.org/2000/svg"><g clip-path="url(#clip0_1106_5274)" fill-rule="evenodd" clip-rule="evenodd" fill="#fff"><path d="M27.805 2.38l-3.99 8.683h.66l1.08-2.415h5.053l1.088 2.412h.699l-3.99-8.684-.6.003zm-1.973 5.683l2.267-4.984 2.25 4.984h-4.517zm18.315-3.18a2.304 2.304 0 00-.646-1.621c-.514-.516-1.354-.84-2.406-.84h-3.586v8.599h.636V7.458h2.797l2.722 3.563h.808L41.65 7.346c1.44-.196 2.497-1.02 2.497-2.457v-.006zM38.14 6.875V3.021h2.92c1.55 0 2.456.725 2.456 1.88 0 1.265-1.063 1.99-2.498 1.99l-2.878-.016zm18.366-4.457h-.866l-5.45 5.645V2.418h-.635v8.603h.635V8.833l2.126-2.17 3.516 4.35h.833L52.78 6.207l3.724-3.79zm16.439.603h2.98v8.01h.636v-8.01h2.977v-.603h-6.593v.603zm11.702 8.01h.636V2.419h-.636v8.614zm12.244-1.12l-5.9-7.493h-.6v8.603h.611V3.376l6.022 7.645h.478V2.418h-.611v7.493zm9.751-3.36v.56h2.776v2.4a4.236 4.236 0 01-2.637.955c-2.22 0-3.546-1.61-3.546-3.773 0-2.042 1.407-3.76 3.416-3.76a3.69 3.69 0 012.658 1.004l.403-.465a4.303 4.303 0 00-3.025-1.101c-2.47 0-4.091 2.067-4.091 4.322 0 2.375 1.549 4.322 4.163 4.322a4.95 4.95 0 003.252-1.255V6.544l-3.369.006zm-44.89-3.517h6.105v-.62h-6.105v.62zm4.238 3.397h-4.238v.614h4.238v-.614zm-4.238 4.589h6.105v-.614h-6.105v.614zM15.015.5L12.19 5.385 9.378.5H5.971v7.258a22.33 22.33 0 003.407 2.504v-3.6l2.659 4.482h.305l2.673-4.482V12.5h3.39V.5h-3.39zM4.265 6.032V.5H.857a19.31 19.31 0 003.408 5.532zM.857 7.463v5.042h3.408v-2.67A26.105 26.105 0 01.857 7.464zm5.113 3.283V12.5h3.408v-.379a26.191 26.191 0 01-3.407-1.375z"/></g><defs><clipPath id="clip0_1106_5274"><path fill="#fff" transform="translate(.857 .5)" d="M0 0h109.143v12H0z"/></clipPath></defs></svg>