<svg width="22" height="22" fill="none" xmlns="http://www.w3.org/2000/svg"><path d="M11 2.075h4.463c1.05 0 1.575.263 1.968.394.525.262.92.394 1.313.787.394.394.656.788.787 1.313.132.394.263.919.394 1.969v8.925c0 1.05-.262 1.575-.394 1.968-.262.525-.393.92-.787 1.313-.394.394-.788.656-1.313.787-.393.132-.918.263-1.968.394H6.538c-1.05 0-1.575-.262-1.97-.394-.524-.262-.918-.393-1.312-.787-.393-.394-.656-.788-.787-1.313-.131-.393-.263-.918-.394-1.968V6.538c0-1.05.263-1.575.394-1.97.262-.524.394-.918.787-1.312.394-.393.788-.656 1.313-.787.394-.131.919-.263 1.969-.394H11zm0-1.969H6.538c-1.182 0-1.97.263-2.625.525a5.731 5.731 0 00-1.969 1.313C1.288 2.6 1.025 3.125.631 3.913.37 4.569.238 5.356.106 6.538v8.925c0 1.18.263 1.968.525 2.625a5.73 5.73 0 001.313 1.968c.656.657 1.181.92 1.969 1.313.656.262 1.443.394 2.625.525h8.925c1.18 0 1.968-.263 2.625-.525a5.73 5.73 0 001.968-1.313c.657-.656.92-1.18 1.313-1.968.262-.657.394-1.444.525-2.625V6.538c0-1.182-.263-1.97-.525-2.625a5.73 5.73 0 00-1.313-1.969c-.656-.656-1.18-.919-1.968-1.313C17.43.37 16.644.238 15.463.106H11z" fill="#fff"/><path d="M11 5.356A5.602 5.602 0 005.356 11 5.602 5.602 0 0011 16.644 5.602 5.602 0 0016.644 11 5.602 5.602 0 0011 5.356zm0 9.32c-1.969 0-3.675-1.576-3.675-3.676C7.325 9.031 8.9 7.325 11 7.325c1.969 0 3.675 1.575 3.675 3.675 0 1.969-1.706 3.675-3.675 3.675zm5.775-8.138a1.312 1.312 0 100-2.625 1.312 1.312 0 000 2.625z" fill="#fff"/></svg>