<svg width="22" height="16" fill="none" xmlns="http://www.w3.org/2000/svg"><g clip-path="url(#clip0_1485_1151)"><path d="M22 13.536a2.47 2.47 0 01-.716 1.74c-.458.462-1.08.72-1.728.72H2.444c-.648 0-1.27-.258-1.728-.72A2.469 2.469 0 010 13.536V2.464C0 1.81.258 1.185.716.724a2.436 2.436 0 011.728-.72h17.112c.648 0 1.27.258 1.728.72.459.461.716 1.087.716 1.74v11.072z" fill="#00AFCA"/><path d="M11.633 8.848c.966 0 1.75-.79 1.75-1.763 0-.973-.784-1.762-1.75-1.762-.967 0-1.751.789-1.751 1.762 0 .974.784 1.763 1.75 1.763z" fill="#FFCC4D"/><path d="M11.634 5.19c.104-.001.141-.067.141-.145 0-.105-.141-.92-.141-.92s-.145.815-.145.92c0 .078.04.145.145.145zm0 3.8c-.105.001-.145.067-.145.145 0 .105.145.91.145.91s.141-.805.141-.91c.001-.078-.037-.145-.141-.145zm-.49-.074c-.1-.026-.154.028-.174.103-.027.101-.1.927-.1.927s.35-.751.376-.852c.021-.076 0-.151-.102-.178zm.978-3.671c.101.027.156-.027.177-.102.027-.102.094-.917.094-.917s-.344.74-.371.842c-.02.075 0 .15.1.177zm-1.432 3.48c-.09-.05-.156-.013-.195.055-.052.09-.334.869-.334.869s.53-.635.582-.725c.039-.068.038-.146-.053-.199zm1.888-3.291c.09.053.158.014.197-.053.052-.091.327-.86.327-.86s-.524.625-.576.716c-.038.067-.038.144.052.197zM10.3 8.424c-.074-.073-.147-.054-.202.002-.073.074-.546.752-.546.752s.675-.475.748-.548c.055-.055.075-.132 0-.206zm2.67-2.688c.075.075.149.056.204 0 .074-.074.537-.746.537-.746s-.666.469-.739.543c-.055.056-.075.13-.002.203zm-2.968 2.295c-.053-.09-.128-.09-.196-.05-.09.052-.721.583-.721.583s.774-.282.864-.334c.068-.04.106-.107.053-.199zm3.27-1.9c.053.092.13.092.196.054.09-.053.711-.581.711-.581s-.763.279-.854.33c-.067.04-.105.106-.053.197zM9.813 7.574c-.028-.1-.101-.12-.176-.1-.1.026-.847.376-.847.376s.82-.07.92-.098c.076-.02.13-.076.103-.178zm3.646-.984c.028.102.102.123.177.103.1-.027.836-.375.836-.375s-.81.07-.91.097c-.075.02-.13.074-.103.175zm-3.71.494c0-.105-.066-.143-.144-.143-.104 0-.914.143-.914.143s.81.145.914.145c.078 0 .144-.04.144-.145zm3.776 0c0 .106.066.145.143.145.105 0 .904-.145.904-.145s-.8-.143-.904-.143c-.077 0-.143.038-.143.143zm-3.712-.49c.026-.102-.027-.155-.102-.176-.1-.027-.92-.1-.92-.1s.746.351.846.379c.075.02.15-.001.176-.103zm3.647.983c-.027.103.027.158.101.178.101.027.91.095.91.095s-.734-.346-.836-.373c-.074-.02-.148-.001-.175.1zm-3.458-1.44c.05-.091.013-.158-.055-.197-.09-.052-.863-.336-.863-.336s.63.533.72.586c.068.039.145.038.198-.053zm3.27 1.9c-.053.092-.015.16.052.198.09.053.855.33.855.33s-.622-.527-.712-.58c-.067-.039-.143-.039-.195.052zm-2.971-2.293c.072-.075.053-.148-.002-.203-.074-.074-.747-.55-.747-.55s.472.68.544.753c.055.056.13.075.205 0zm2.67 2.688c-.074.075-.055.15 0 .205.073.074.741.54.741.54s-.465-.67-.54-.744c-.054-.055-.128-.076-.2-.001zm-2.28-2.989c.09-.053.09-.129.051-.197-.052-.09-.58-.726-.58-.726s.28.78.332.87c.039.068.107.106.198.053zm1.888 3.292c-.09.053-.091.13-.053.198.053.09.577.715.577.715s-.277-.769-.329-.86c-.039-.067-.105-.106-.195-.053zm-1.434-3.48c.1-.029.12-.103.1-.178-.027-.101-.374-.852-.374-.852s.07.825.097.926c.02.076.076.13.177.104zm.978 3.67c-.102.028-.122.102-.102.178.027.101.373.841.373.841s-.07-.815-.097-.915c-.02-.076-.074-.13-.174-.104z" fill="#FFCC4D"/><path d="M13.35 11.473l-.022.01-.025.003-.02.004-.034-.008-.015-.006-.014-.007-.017-.01-.027-.02-.026-.02-.014-.01-.017-.007-.012-.003h-.018l-.07.144-.013.02-.014.017-.014.01-.012.011-.018.007h-.016l-.016-.007-.021-.01-.006-.01-.007-.011-.008-.014-.007-.016-.01-.05-.02.016-.019.024-.038.058-.022.03-.024.023-.013.014-.017.01-.016.008-.02.006h-.01l-.018.004-.016-.004-.013-.006-.04-.047-.043-.048-.03.048-.035.04-.016.016-.016.017-.016.013-.031.018-.017.003h-.017l-.014-.003-.013-.008-.01-.01-.013-.016a1.506 1.506 0 00-.027-.075l-.004-.017-.006-.013-.007-.006h-.008l-.09.148-.013.013-.024.01-.052.014h-.031l-.024-.007-.007-.004-.01-.01-.003-.007v-.013l.013-.149-.01.004-.027.013a2.153 2.153 0 00-.07.077l-.03.038-.037.031-.035.027-.02.01-.04.007-.016-.004-.008-.002-.006-.008-.004-.01v-.01l.004-.044.01-.068-.007-.04-.014-.023-.02.03-.033.043-.084.09a.824.824 0 00-.047.033l-.037.013-.007-.004h-.01l-.008-.006-.003-.004-.007-.01-.002-.01v-.014l-.004-.017.004-.128a5.247 5.247 0 01-.185.122l-.024.01-.026.013-.074.02h-.024l-.023-.003-.02-.007.01-.027.02-.048.013-.02.014-.02.013-.02.034-.034.038-.026.043-.028.043-.02.051-.017.05-.013.115-.02.056-.008c.17-.01.338-.01.507-.01l.185-.01.058-.007.106-.02.051-.014.048-.02.044-.02a1.54 1.54 0 01.072-.054l.032-.038-.035-.067.027-.004.027-.006.027-.014.023-.017.01-.006.01-.01.008-.014.007-.01.003-.013v-.024l-.008-.013.058-.01.061-.008.064-.003h.067c.093.003.186.009.28.016.14.018.28.031.422.045l.127.006v.047l-.003.021-.007.02-.006.02-.008.017-.01.013a.775.775 0 01-.037.04l-.03.02-.032.013-.033.008-.037.007-.071-.007-.038-.01-.032-.018-.035-.017-.026-.023-.026-.027v.058l-.017.112-.013.035-.007.014-.01.01-.007.01-.009.007zm-2.7-.319l.077.034a.932.932 0 01.047-.037l.03-.016.027-.017.1-.04.087-.041.044-.017.075-.04.03-.02c.076-.05.152-.1.228-.148l.067-.047.05-.041.149-.139.02-.013.023-.014.084-.04.057-.02a3.15 3.15 0 01.345-.074l.356-.044.158-.027c.039-.011.078-.021.118-.03l.04-.051.065-.071.044-.044.049-.04.057-.045.067-.044.101-.06.217-.112a8.41 8.41 0 00.38-.19l.06-.04.017-.051.024-.05.03-.051.078-.105.104-.115c.041-.04.084-.08.127-.118l.065-.054.032-.024.035-.023.074-.04.037-.018.037-.013.078-.021.04-.002.037-.004.039.004.037.006-.002.04-.01.04-.03.085-.025.044-.03.044-.037.047-.044.047.035-.003.03-.007.024-.008.022-.01.044-.013.064-.007.003.024v.024l-.003.023-.007.02-.01.02-.014.02-.012.017-.017.017a4.734 4.734 0 01-.141.132l.04.003c.03.01.058.019.088.027l.033.007-.04.031-.093.061-.108.06-.054.035-.054.037-.05.04.023.004.031.013.014.004.012.007.011.003.01-.003-.066.037-.124.061-.052.031-.01.01-.006.011-.007.01.002.013.008.01.013.01.012.012-.005.013-.007.01-.013.01-.012.011-.033.016-.039.017-.076.027-.048.024.067.067-.024.024-.023.017-.02.01-.024.01-.046.007h-.066l.007.03.01.03.014.07a2.672 2.672 0 01-.128.093l-.078.05-.086.051-.051.024-.05.024a2.894 2.894 0 01-.172.06l-.13.028-.072.01c.078.003.156.004.233.004l.191-.02.084-.017.074-.02a4.24 4.24 0 00.144-.055l.093-.043.091-.05.087-.056.091-.053-.055-.027-.052-.017-.025-.011c-.02-.01-.038-.019-.058-.027l-.031-.017.026-.02.033-.013.034-.013c.04-.01.082-.02.122-.028.053-.005.105-.012.158-.02l.066-.006.052-.013.013-.008.01-.01-.002-.004-.008-.007-.01-.003-.012-.006-.038-.008-.047-.007-.047-.003-.046-.007-.042-.01-.025-.01.328-.075.058-.017.074-.03.032-.021.014-.013-.004-.003-.006-.007-.03-.007-.044-.004h-.05l-.105-.006-.043-.007-.027-.007.048-.02a5.07 5.07 0 01.215-.061 2.89 2.89 0 01.124-.041l.063-.027.03-.017.028-.016.01-.01.01-.014.01-.01.003-.01L15 9.77l-.01-.007-.01-.003h-.093l-.044.003h-.06l-.018-.003-.012-.007-.014-.007c.122-.081.245-.162.37-.24l.096-.068a1.94 1.94 0 00.076-.067l.03-.034.028-.034.02-.037.017-.037.01-.04v-.045h-.023l-.024.004-.053.02a2.51 2.51 0 01-.141.085l-.027.017-.03.013-.03.01-.028.007-.027.004h-.03l-.027-.01.081-.062.195-.169c.07-.068.14-.138.207-.21l.097-.108.088-.112.07-.104.008-.013.002-.01-.003-.015-.003-.01-.004-.01-.01-.008-.01-.01-.01-.004-.013-.006-.014-.004H15.6l-.012.004-.018.003-.01.01-.014.011a11.32 11.32 0 00-.203.21l-.081.077a7.403 7.403 0 01-.162.14 2.052 2.052 0 01-.077.05l-.074.037.023-.02.071-.07c.086-.1.169-.204.248-.308l.155-.22.042-.074.042-.067.033-.062.026-.058.017-.046.004-.017v-.027l-.004-.01-.012-.02-.008-.008-.01-.003-.02-.01-.025-.008h-.046l-.012.004-.01.003-.014.008-.01.01-.027.023c-.03.037-.06.074-.088.112-.067.106-.138.21-.211.311l-.085.102-.043.044-.046.04.06-.112.094-.199.06-.145.027-.074.046-.153a3.91 3.91 0 00.032-.148 5.21 5.21 0 00.01-.14l-.004-.033-.003-.03-.003-.032-.01-.039-.007-.011-.017-.017-.023-.01-.025-.007h-.022l-.022.004-.006.003-.01.003-.003.007c-.06.192-.107.388-.16.582-.019.054-.038.108-.059.162l-.05.098-.031.044.02-.098c.01-.056.018-.112.026-.169l.014-.139.004-.058a2.158 2.158 0 00-.008-.088l-.006-.033-.01-.028-.013-.02-.008-.007-.02-.006-.01-.004h-.01l-.01.004-.028.006-.026.014a4.685 4.685 0 01-.074.311c-.04.13-.087.257-.14.382a4.742 4.742 0 01-.116.226l-.074.129-.08.12c-.053.076-.109.15-.166.223a9.756 9.756 0 01-.172.19c-.06.06-.122.119-.185.176a5.95 5.95 0 01-.197.159 4.373 4.373 0 01-.25.169l-.147.087-.236.109-.242.087-.2.062-.208.046-.104.018-.212.027-.108.007-.01.003-.01.003-.02.011-.023.016a2.734 2.734 0 00-.078.071l-.054.055-.195.219-.074.074-.087.067-.034.024-.033.02-.074.034c-.113.047-.229.09-.343.136l-.03.016-.027.015-.02.013-.037.037-.01.017-.008.016-.002.024v.018" fill="#FFCC4D"/><path d="M11.88 11.306l.057.008.027.01.006.003v.004h-.006l-.007.003-.054.01h-.043l-.14-.01-.356-.007-.283.007-.248.02-.065.01-.057.014c-.013.005-.026.01-.04.013l-.016.008-.014.01.006-.034.015-.035-.047.014-.04.02-.016.01-.014.014-.01.016-.003.017-.01-.023-.007-.021a.498.498 0 00-.008-.044.771.771 0 00.01-.053l.011-.017.006-.014.014-.016.027-.027.037-.024.041-.023a.31.31 0 00.07.03c.024.002.048 0 .072-.007.037.033.133.026.147-.034a.149.149 0 000-.067l.04-.004.047-.007.104-.027.055-.01.05-.013.047-.007.04-.004-.017.014-.087.067-.033.024.042.01.038.008-.08.09-.02.028.026.01.027.008.03.006h.06l.06-.013.024-.014.028.014.027.01.052.014.126.013h.253m-.307-1.029l-.03.061-.034.078a1.643 1.643 0 00-.05.097l-.016.018-.04-.034-.044-.031-.047-.024-.05-.02-.108-.027-.053-.01a4.094 4.094 0 00-.175-.017 3.652 3.652 0 01-.231-.01l-.108-.014-.06-.01-.057-.013-.06-.021-.05-.027-.038-.024-.077-.057c-.113-.107-.224-.214-.34-.318l-.066-.047-.03-.014-.032-.01-.057-.012a2.737 2.737 0 00-.1-.034 2.65 2.65 0 00-.095-.044 1.925 1.925 0 01-.16-.112l-.034-.031-.067-.067-.064-.071c-.106-.13-.205-.264-.309-.396l-.15-.155-.044-.04-.044-.037-.097-.07-.01.002-.01.01-.01.014a.615.615 0 00-.017.048l-.003.013-.025-.011-.02-.01-.024-.01-.02-.008h-.044l-.024.007-.023.01.053.071.03.048.054.104.02.051.007.027.008.02.003.024v.02H8.32l.026.04c.02.028.042.055.063.081l.111.112.038.03.034.025-.088.007-.088.01.03.027.078.058.043.03.044.027.044.024.04.013.037.01.03.007.01.004.007.007.003.003v.013l-.01.028-.002.02-.005.013v.01l.005.017.002.014.007.006.01.007.013.007.017.004.034.013.017.006.013.01.003.004v.007l-.003.004-.027.02-.013.013-.013.017v.014l-.004.013.007.037.118.04.026.006.027.012.02.01.018.01-.112.088.03.027.038.02.047.024.101.035.05.01.044.01h.04l-.037.027-.047.03-.05.028-.038.027.034.023c.102.053.206.102.313.146.185.076.376.143.567.202.043.01.085.022.127.034l.054.01-.109-.01a4.55 4.55 0 01-.2-.03l-.095-.02-.185-.054-.087-.031c-.232-.091-.459-.196-.691-.284l.017-.01.047-.017.03-.007c.04-.012.08-.026.12-.04a4.605 4.605 0 01-.238-.044 2.83 2.83 0 00-.124-.037l-.024-.01-.02-.011-.017-.011-.01-.01v-.003l.003-.004.01-.004.01-.006.027-.01.117-.035.068-.024a9.612 9.612 0 00-.293-.05l-.047-.011-.037-.013-.013-.007-.013-.01-.011-.007-.007-.011.01-.007.03-.007.095-.016.053-.007.09-.028.015-.01.013-.01-.053-.021-.034-.006-.034-.008-.154-.02-.04-.01-.037-.007-.074-.026-.035-.018-.027-.02-.027-.023-.02-.03.007-.004.013-.004h.017l.027.004.128.007.074.007h.094l.026-.004.02-.007.014-.007a5.574 5.574 0 01-.313-.142l-.127-.067-.06-.038a4.642 4.642 0 01-.11-.08l-.048-.041-.02-.024-.021-.02-.013-.02-.014-.024-.014-.02-.007-.023-.006-.044h.023l.027.003.027.011.027.01.053.034.06.034.027.017.03.016.03.013.027.01.03.008.027.003h.03l.027-.01-.08-.062a8.546 8.546 0 01-.195-.168 5.366 5.366 0 01-.306-.318l-.043-.058-.044-.054a4.466 4.466 0 01-.07-.105l-.007-.013v-.024l.003-.01.004-.01.01-.007.01-.01.01-.008.014-.003.013-.003h.027l.016.003.015.003.013.01c.073.073.144.147.214.221.078.075.159.148.242.217l.077.05.04.02.037.013-.026-.016-.07-.071a7.085 7.085 0 01-.249-.308 6.462 6.462 0 01-.199-.294 3.32 3.32 0 01-.073-.128 3.122 3.122 0 00-.043-.105l-.005-.016v-.028l.005-.01.013-.02.007-.008.01-.006.044-.014h.047l.013.003.01.004.013.007.038.034.087.112c.069.106.14.21.215.31l.08.102.044.044.047.04a8.121 8.121 0 01-.154-.31 6.074 6.074 0 01-.06-.145l-.028-.074a2.739 2.739 0 00-.047-.153l-.016-.074-.012-.076-.008-.07-.003-.068.003-.034.004-.03.004-.031.006-.03.007-.011.004-.01.01-.011.006-.006.023-.01.024-.007h.023l.02.004.01.002.008.004.003.007.004.01c.057.189.105.38.154.572l.061.159.023.05.027.048.03.047-.02-.098a3.703 3.703 0 00-.026-.168 5.3 5.3 0 01-.017-.197l.007-.087.007-.035.01-.026.014-.02.006-.008.01-.007.01-.003h.03l.028.01.026.013.047.213a3.067 3.067 0 00.168.48l.047.098.068.13.073.127.081.122.087.121.081.102c.056.064.113.127.171.189.06.06.123.118.185.175l.098.082c.089.07.18.137.275.2.074.044.15.087.225.128l.231.112c.117.047.236.09.356.128.117.031.236.058.356.081.16.026.326.041.491.048zm-9.461 4.194s-.145.12-.194.06c-.079-.099.243-.59.243-.763 0-.284-.19-.363-.422-.403a1.641 1.641 0 00-.41.012c.048.064.08.085.16.088a.34.34 0 00-.181.309c0 .243.1.344.1.62 0 .153-.124.348-.124.348.22-.022.33-.227.267-.392a.104.104 0 01.094.029c.016-.045-.009-.098-.043-.143.027-.014.048-.006.091.003-.004-.047-.032-.096-.1-.143.198.051.32-.087.32-.233 0-.11-.077-.189-.152-.189a.155.155 0 00-.08.025c-.014-.03-.007-.07.007-.1-.054.014-.09.047-.064.116a.134.134 0 00-.098.045.118.118 0 00.098.044c-.03.064.004.1.053.129 0 0-.032-.129.05-.129.036 0 .07.013.07.067 0 .046-.042.111-.136.107-.094-.004-.17-.065-.17-.216 0-.14.111-.21.258-.215.133-.004.234.069.234.207 0 .183-.264.603-.264.766 0 .123.11.192.217.192.139 0 .256-.14.256-.14l-.08-.101zm-.03-3.323c0-.307.273-.465.488-.465.29 0 .444.175.444.402a.69.69 0 01-.083.336l-.664 1.388a.414.414 0 00-.031.185c0 .124.12.226.246.23.114.002.24-.109.24-.235 0-.153-.079-.22-.16-.22-.1 0-.14.04-.14.11 0 .05.025.072.058.072.086 0 .062-.116.062-.116a.08.08 0 01.057.108.15.15 0 01.083.049.151.151 0 01-.083.045c.02.067-.006.1-.064.114a.12.12 0 00.008-.072c-.091.026-.23-.015-.23-.173 0-.158.108-.29.311-.258-.049-.022-.072-.069-.077-.123a.258.258 0 00.077.017c-.023-.042-.056-.078-.055-.162.038.018.072.05.12.03-.075-.15.018-.356.255-.405a.493.493 0 00-.129.322c0 .357.099.416.099.663a.369.369 0 01-.158.291v-.004a.213.213 0 01.14.1c-.16.045-.39.044-.512-.005a.377.377 0 01-.271-.18.555.555 0 010-.44c.094-.198.538-1.144.676-1.443a.476.476 0 00.047-.203c0-.181-.166-.245-.26-.245-.113 0-.228.087-.228.194 0 .07.037.11.09.11.128 0 .12-.11.094-.178.079.037.125.1.113.167a.203.203 0 01.127.072c-.032.04-.07.07-.127.071.025.105-.044.149-.113.173.021-.076.036-.166-.094-.166-.095 0-.17-.016-.213-.078l-.01.409c-.006.123.162.12.27.083-.042.141-.124.218-.317.198a.151.151 0 01.097.149.393.393 0 01-.153.28l-.03-1.197z" fill="#FFCC4D"/><path d="M2.143 11.15c0-.307-.274-.465-.49-.465-.289 0-.444.175-.444.402 0 .13.024.212.084.336l.664 1.388a.415.415 0 01.03.185c0 .124-.12.226-.245.23-.115.002-.24-.109-.24-.235 0-.153.078-.22.16-.22.1 0 .139.04.139.11 0 .05-.024.072-.057.072-.086 0-.062-.116-.062-.116a.08.08 0 00-.058.108.15.15 0 00-.082.049c.022.023.05.04.082.045-.02.067.008.1.065.113a.12.12 0 01-.008-.071c.091.025.23-.015.23-.174 0-.157-.108-.29-.31-.257.048-.022.072-.07.077-.124a.261.261 0 01-.077.018c.023-.042.056-.079.055-.162-.038.018-.073.049-.121.029.075-.15-.018-.355-.255-.405a.5.5 0 01.13.322c0 .357-.1.416-.1.663 0 .104.054.216.159.292v-.004a.208.208 0 00-.14.1c.16.044.389.043.512-.005a.377.377 0 00.271-.181.555.555 0 000-.44c-.094-.197-.538-1.144-.676-1.442a.476.476 0 01-.047-.203c0-.182.166-.246.26-.246.113 0 .228.088.228.195 0 .069-.038.11-.09.11-.128 0-.12-.11-.095-.179-.079.037-.125.1-.112.168a.206.206 0 00-.127.072c.03.04.069.07.127.07-.026.105.044.15.112.173-.021-.076-.035-.165.095-.165.095 0 .17-.017.213-.079l.01.41c.005.122-.163.118-.27.082.04.141.123.218.315.198a.151.151 0 00-.096.149.39.39 0 00.153.28l.03-1.196zm-.03 3.323s.144.12.193.06c.08-.098-.242-.59-.242-.763 0-.284.189-.363.42-.403.157-.027.411.012.411.012-.048.065-.078.085-.159.088a.34.34 0 01.18.309c0 .243-.1.344-.1.62 0 .153.125.348.125.348-.22-.022-.33-.227-.267-.392a.108.108 0 00-.094.029c-.016-.045.01-.098.043-.143-.028-.014-.048-.006-.091.003.004-.047.032-.096.1-.143-.198.051-.32-.087-.32-.233 0-.11.077-.189.152-.189.024 0 .06.01.08.025.014-.03.007-.07-.008-.1.055.014.09.047.065.116a.133.133 0 01.098.045.117.117 0 01-.098.044c.03.064-.004.1-.053.129 0 0 .032-.129-.05-.129-.036 0-.07.013-.07.067 0 .046.042.111.136.107.094-.004.17-.065.17-.216 0-.14-.112-.21-.259-.215-.133-.004-.233.069-.233.207 0 .183.264.603.264.766 0 .123-.11.192-.217.192-.14 0-.257-.14-.257-.14l.08-.101zm-.03-8.702c0-.307.273-.465.488-.465.29 0 .444.175.444.403 0 .13-.024.211-.083.335l-.664 1.389a.41.41 0 00-.031.184c0 .125.12.226.246.23.114.002.24-.108.24-.234 0-.152-.079-.22-.16-.22-.1 0-.14.04-.14.111 0 .049.025.07.058.07.086 0 .062-.115.062-.115a.078.078 0 01.063.073.08.08 0 01-.006.034.153.153 0 01.083.049.156.156 0 01-.083.046c.02.067-.006.098-.064.113a.119.119 0 00.008-.072c-.091.026-.23-.014-.23-.173 0-.157.108-.29.311-.257-.049-.023-.072-.07-.077-.123a.258.258 0 00.077.016c-.023-.042-.056-.078-.055-.162.038.018.072.05.12.03-.075-.15.018-.357.255-.405a.496.496 0 00-.129.322c0 .356.099.416.099.664a.368.368 0 01-.158.291v-.004A.212.212 0 012.895 8a.942.942 0 01-.512-.004.38.38 0 01-.27-.182.552.552 0 010-.438c.094-.198.537-1.145.676-1.443a.487.487 0 00.047-.203c0-.182-.166-.246-.26-.246-.113 0-.228.087-.228.194 0 .069.037.11.09.11.127 0 .12-.11.094-.178.079.036.125.1.112.167a.198.198 0 01.127.073.156.156 0 01-.127.07c.026.105-.044.15-.112.174.021-.077.035-.165-.094-.165-.095 0-.17-.017-.213-.078l-.01.409c-.006.122.162.12.27.082-.04.142-.123.218-.316.198a.152.152 0 01.097.15.391.391 0 01-.153.28l-.03-1.199z" fill="#FFCC4D"/><path d="M2.143 5.771c0-.307-.274-.465-.49-.465-.289 0-.444.175-.444.403 0 .13.024.211.084.335l.664 1.389c.023.048.03.103.03.184 0 .125-.12.226-.245.23-.115.002-.24-.108-.24-.234 0-.152.078-.22.16-.22.1 0 .139.04.139.111 0 .049-.024.07-.057.07-.086 0-.062-.115-.062-.115a.078.078 0 00-.054.04.079.079 0 00-.004.067.153.153 0 00-.082.049c.022.024.05.04.082.046-.02.067.007.098.065.113a.119.119 0 01-.008-.072c.09.026.23-.014.23-.173 0-.157-.108-.29-.311-.257.048-.023.073-.07.077-.123-.037.014-.077.016-.077.016.023-.042.056-.078.055-.162-.038.018-.072.05-.121.03.076-.15-.017-.357-.254-.405.08.088.126.202.129.322 0 .356-.099.416-.099.664 0 .103.053.215.158.291v-.004A.207.207 0 001.33 8a.942.942 0 00.512-.004.38.38 0 00.27-.182.552.552 0 000-.438c-.093-.198-.537-1.145-.675-1.443a.475.475 0 01-.047-.202c0-.182.165-.246.26-.246.112 0 .227.086.227.193 0 .07-.037.11-.09.11-.127 0-.12-.109-.094-.177-.079.035-.125.1-.113.167a.201.201 0 00-.127.073c.031.039.07.069.127.07-.025.105.044.15.113.173-.022-.076-.036-.165.095-.165.094 0 .169-.016.212-.078l.01.408c.005.123-.163.12-.27.083.04.141.123.217.315.198a.152.152 0 00-.096.15.39.39 0 00.153.28l.03-1.199z" fill="#FFCC4D"/><path d="M2.143 4.85c0 .307-.274.465-.49.465-.289 0-.444-.175-.444-.404 0-.129.024-.21.084-.334l.664-1.39a.412.412 0 00.03-.183c0-.124-.12-.227-.245-.23-.115-.002-.24.108-.24.234 0 .153.078.22.16.22.1 0 .139-.04.139-.111 0-.05-.024-.07-.057-.07-.086 0-.062.115-.062.115a.079.079 0 01-.063-.073.08.08 0 01.005-.034.145.145 0 01-.082-.049.159.159 0 01.082-.045c-.02-.067.008-.099.065-.113a.119.119 0 00-.008.072c.091-.026.23.015.23.173 0 .157-.108.29-.31.256.048.024.072.071.077.124a.28.28 0 00-.077-.016c.023.042.056.078.055.161-.038-.017-.073-.049-.121-.029.075.15-.018.357-.255.406a.498.498 0 00.13-.323c0-.356-.1-.416-.1-.663 0-.104.054-.216.159-.292v.004a.21.21 0 01-.139-.1c.159-.045.388-.044.512.005a.377.377 0 01.27.182.551.551 0 010 .438c-.093.198-.537 1.145-.675 1.443a.473.473 0 00-.047.202c0 .183.165.246.26.246.112 0 .227-.087.227-.194 0-.069-.037-.11-.09-.11-.127 0-.12.108-.094.177-.079-.035-.125-.1-.113-.167a.204.204 0 01-.127-.073c.031-.039.07-.069.127-.07-.025-.104.044-.15.113-.174-.022.077-.036.166.095.166.094 0 .169.016.212.078l.011-.41c.005-.122-.164-.118-.27-.082.04-.141.123-.217.315-.198a.152.152 0 01-.097-.15.39.39 0 01.154-.28l.03 1.2zm0 5.379c0 .307-.274.464-.49.464-.289 0-.444-.174-.444-.402a.68.68 0 01.084-.335l.664-1.389a.412.412 0 00.03-.184c0-.125-.12-.226-.245-.23-.115-.002-.24.108-.24.234 0 .152.078.22.16.22.1 0 .139-.04.139-.111 0-.049-.024-.07-.057-.07-.086 0-.062.116-.062.116a.08.08 0 01-.063-.074.08.08 0 01.005-.034.145.145 0 01-.082-.049.155.155 0 01.082-.045c-.02-.067.007-.1.065-.114a.119.119 0 00-.008.072c.09-.026.23.015.23.173 0 .157-.108.289-.311.257.048.024.073.07.077.124a.294.294 0 00-.077-.017c.023.042.056.08.055.162-.038-.018-.072-.05-.121-.03.076.15-.017.357-.254.405a.495.495 0 00.129-.322c0-.355-.099-.416-.099-.663 0-.104.053-.216.158-.292V8.1c-.068-.019-.113-.053-.138-.1.159-.045.388-.044.512.005a.38.38 0 01.27.181.552.552 0 010 .438c-.093.198-.537 1.145-.675 1.444a.47.47 0 00-.047.202c0 .182.165.245.26.245.112 0 .227-.086.227-.194 0-.067-.037-.109-.09-.109-.127 0-.12.109-.094.177-.079-.035-.125-.1-.113-.167a.2.2 0 01-.127-.072.166.166 0 01.127-.07c-.025-.105.044-.149.113-.174-.022.077-.036.166.095.166.094 0 .169.016.212.079l.011-.41c.005-.122-.164-.119-.27-.083.04-.14.123-.217.315-.198a.152.152 0 01-.097-.149.39.39 0 01.154-.28l.03 1.198z" fill="#FFCC4D"/><path d="M2.082 10.229c0 .307.274.464.489.464.29 0 .444-.174.444-.402a.68.68 0 00-.083-.335l-.664-1.389a.41.41 0 01-.031-.184c0-.125.12-.226.246-.23.114-.002.24.108.24.234 0 .152-.079.22-.16.22-.1 0-.14-.04-.14-.111 0-.049.025-.07.058-.07.086 0 .062.116.062.116a.08.08 0 00.063-.074.08.08 0 00-.006-.034.145.145 0 00.083-.049.155.155 0 00-.083-.045c.02-.067-.006-.1-.064-.114.012.026.012.05.008.072-.091-.026-.23.015-.23.173 0 .157.108.289.311.257-.049.024-.072.07-.077.124.036-.014.077-.017.077-.017-.023.042-.056.08-.055.162.038-.018.072-.05.12-.03-.075.15.018.357.255.405a.495.495 0 01-.129-.322c0-.355.099-.416.099-.663a.367.367 0 00-.158-.292V8.1a.208.208 0 00.14-.1c-.16-.045-.39-.044-.512.005a.38.38 0 00-.271.182.552.552 0 000 .438c.094.198.538 1.145.676 1.443a.47.47 0 01.047.202c0 .182-.166.246-.26.246-.113 0-.228-.087-.228-.195 0-.067.037-.109.09-.109.128 0 .12.11.094.178.079-.036.125-.1.113-.168a.197.197 0 00.127-.072.167.167 0 00-.127-.07c.025-.105-.044-.149-.113-.173.021.077.036.165-.094.165-.095 0-.17.016-.213.079l-.01-.41c-.006-.122.162-.118.27-.082-.042-.141-.124-.217-.317-.198a.152.152 0 00.097-.15.393.393 0 00-.153-.28l-.03 1.199zm.03-8.701s.145-.122.194-.061c.08.099-.242.59-.242.764 0 .284.189.36.42.401.157.028.411-.01.411-.01-.048-.065-.079-.085-.16-.09a.337.337 0 00.181-.306c0-.245-.1-.346-.1-.622 0-.153.125-.348.125-.348-.22.023-.33.228-.268.392a.105.105 0 01-.093-.029c-.016.046.01.099.043.144-.028.015-.048.006-.091-.004.004.048.032.097.1.144-.199-.052-.32.087-.32.233 0 .11.076.188.151.188a.15.15 0 00.08-.025c.015.03.007.07-.007.1.055-.013.089-.047.064-.115a.142.142 0 00.099-.045.12.12 0 00-.1-.045c.031-.064-.003-.1-.052-.128 0 0 .031.128-.05.128-.037 0-.07-.013-.07-.066 0-.047.041-.112.135-.108.095.004.17.065.17.217 0 .14-.11.209-.258.214-.133.003-.233-.07-.233-.207 0-.184.264-.602.264-.766 0-.123-.11-.192-.217-.192-.14 0-.257.139-.257.139l.082.103z" fill="#FFCC4D"/><path d="M2.113 1.528s-.145-.122-.194-.061c-.08.1.243.59.243.764 0 .284-.19.361-.422.402a1.643 1.643 0 01-.41-.012c.048-.064.08-.084.16-.088a.336.336 0 01-.182-.307c0-.245.1-.346.1-.622 0-.153-.124-.348-.124-.348.22.023.33.228.268.392a.107.107 0 00.094-.029c.016.046-.01.099-.044.144.027.015.047.006.091-.004-.004.048-.032.097-.1.144.198-.052.32.087.32.233 0 .11-.077.188-.152.188a.15.15 0 01-.08-.025c-.013.03-.006.07.008.1-.054-.013-.088-.047-.064-.114a.14.14 0 01-.098-.046.119.119 0 01.098-.045c-.03-.064.004-.1.053-.128 0 0-.032.128.05.128.036 0 .07-.013.07-.066 0-.047-.042-.112-.136-.108-.094.004-.17.065-.17.217 0 .14.111.208.258.213.133.004.234-.068.234-.207 0-.183-.264-.602-.264-.766 0-.123.11-.192.217-.192.139 0 .256.14.256.14l-.08.103zm-.03 3.322c0 .307.273.465.488.465.29 0 .444-.175.444-.404a.686.686 0 00-.083-.334l-.664-1.39a.415.415 0 01-.03-.183c0-.124.12-.226.246-.23.114-.002.24.109.24.235 0 .153-.08.22-.16.22-.1 0-.14-.04-.14-.111 0-.05.024-.07.058-.07.085 0 .061.115.061.115a.08.08 0 00.063-.073.08.08 0 00-.005-.035.148.148 0 00.082-.049.159.159 0 00-.083-.045c.02-.067-.007-.099-.064-.113a.12.12 0 01.007.071c-.09-.025-.23.016-.23.174 0 .157.108.29.312.256-.05.024-.073.071-.078.124a.282.282 0 01.078-.016c-.024.042-.057.078-.056.161.038-.017.073-.049.121-.029-.076.15.017.357.254.406a.498.498 0 01-.129-.323c0-.356.1-.416.1-.663a.37.37 0 00-.158-.292v.004a.213.213 0 00.138-.1c-.158-.044-.389-.044-.512.006a.374.374 0 00-.27.181.551.551 0 000 .438c.094.198.537 1.145.676 1.443.03.063.046.132.047.202 0 .183-.166.246-.26.246-.113 0-.228-.087-.228-.194 0-.069.037-.11.09-.11.127 0 .12.108.094.177.079-.035.125-.1.112-.167a.2.2 0 00.127-.073c-.03-.039-.069-.069-.127-.07.026-.104-.044-.15-.112-.174.021.077.035.166-.094.166-.095 0-.17.016-.213.078l-.01-.41c-.006-.122.162-.118.27-.082-.04-.14-.123-.216-.316-.197a.152.152 0 00.097-.149.391.391 0 00-.153-.28l-.03 1.198z" fill="#FFCC4D"/></g><defs><clipPath id="clip0_1485_1151"><path fill="#fff" d="M0 0h22v16H0z"/></clipPath></defs></svg>