<svg width="55" height="36" fill="none" xmlns="http://www.w3.org/2000/svg"><path d="M0 .438h19.938v13.624c0 2.876-.417 5.605-1.25 8.188-.834 2.542-2.084 4.77-3.75 6.688-1.667 1.916-3.75 3.458-6.25 4.625C6.229 34.687 3.332 35.25 0 35.25V28c8.458 0 12.688-4.646 12.688-13.938v-1.937H0V.437zm34.938 0h19.874v13.624c0 2.876-.416 5.605-1.25 8.188-.791 2.542-2.02 4.77-3.687 6.688-1.667 1.916-3.75 3.458-6.25 4.625-2.458 1.124-5.354 1.687-8.688 1.687V28C43.313 28 47.5 23.354 47.5 14.062v-1.937H34.937V.437z" fill="#001B45"/></svg>