<svg width="22" height="16" fill="none" xmlns="http://www.w3.org/2000/svg"><g clip-path="url(#clip0_1485_1146)"><path d="M22 13.536a2.47 2.47 0 01-.716 1.74c-.458.462-1.08.72-1.728.72H2.444c-.648 0-1.27-.258-1.728-.72A2.469 2.469 0 010 13.536v-2.46h22v2.46z" fill="#CE2028"/><path d="M0 4.924h22v6.152H0V4.924z" fill="#22408C"/><path d="M19.556.003H2.444c-.648 0-1.27.26-1.728.72A2.469 2.469 0 000 2.464v2.461h22v-2.46a2.47 2.47 0 00-.716-1.74 2.436 2.436 0 00-1.728-.72z" fill="#EEE"/></g><defs><clipPath id="clip0_1485_1146"><path fill="#fff" d="M0 0h22v16H0z"/></clipPath></defs></svg>